<?xml version="1.0" encoding="utf-8"?>
<!-- Generator: Adobe Illustrator 27.8.1, SVG Export Plug-In . SVG Version: 6.00 Build 0)  -->
<svg version="1.1" id="Layer_1" xmlns="http://www.w3.org/2000/svg" xmlns:xlink="http://www.w3.org/1999/xlink" x="0px" y="0px"
	 viewBox="0 0 500 500" style="enable-background:new 0 0 500 500;" xml:space="preserve">
<style type="text/css">
	.st0{fill:url(#XMLID_00000049210573307438841190000014132940548690978435_);}
	.st1{fill:#1E429A;}
	.st2{fill:#FFFFFF;}
	.st3{fill:url(#XMLID_00000009591342112610283060000010930964534649335209_);}
	.st4{fill:#F7F7F7;}
	.st5{opacity:0.3;fill:#414042;enable-background:new    ;}
	.st6{fill:url(#XMLID_00000145776617190376512620000009298989461848320658_);}
	.st7{fill:#E6E7E8;}
	.st8{fill:#1DAD4A;}
	.st9{fill:url(#XMLID_00000046305430744522281340000007898858585844513719_);}
	.st10{fill:url(#SVGID_1_);}
	.st11{fill:url(#XMLID_00000137091844183869640940000007379826647237419961_);}
	.st12{fill:url(#XMLID_00000130629563434381430940000001187236156725559175_);}
	.st13{fill:url(#XMLID_00000031892017882431449260000010530362835155183027_);}
	.st14{fill:url(#XMLID_00000031903184939552051460000015331950884872300715_);}
	.st15{fill:#D1D3D4;}
	.st16{fill:#F1F2F2;}
	.st17{fill:#008142;}
	.st18{fill:#4782D9;}
	.st19{fill:url(#XMLID_00000034772833566672970460000013945603756637151908_);}
	.st20{fill:url(#XMLID_00000145767239716166260040000008123807104111394215_);}
	.st21{fill:url(#XMLID_00000163786439106171997920000014257873876643874489_);}
	.st22{fill:url(#XMLID_00000036971118722892703660000005847471963833873082_);}
	.st23{fill:url(#XMLID_00000181799404089026745890000005746731076198864515_);}
	.st24{fill:url(#XMLID_00000122687921547737296660000006175295058880459908_);}
	.st25{fill:url(#XMLID_00000075156828510851012050000008138921337868239010_);}
</style>
<g>
	<g id="Bg">
	</g>
	<g id="Graphics">
		<g id="Layer_5">
		</g>
		<g id="Layer_7">
		</g>
		<g id="Layer_8">
		</g>
		<g id="Layer_9">
		</g>
		<g id="Layer_12">
		</g>
		<g id="Layer_10">
		</g>
		<g id="Layer_11">
		</g>
		<g id="Layer_13">
		</g>
		<g id="Layer_14">
		</g>
		<g id="Layer_15">
		</g>
	</g>
	<g id="button">
	</g>
	<g id="Text">
		<g>
			<g>
				
					<linearGradient id="XMLID_00000167359654829631044960000011942225832875546262_" gradientUnits="userSpaceOnUse" x1="262.3" y1="-1755" x2="431.4" y2="-1755" gradientTransform="matrix(1 0 0 -1 0 -1588)">
					<stop  offset="0" style="stop-color:#2842A2"/>
					<stop  offset="0.2827" style="stop-color:#3358B5"/>
					<stop  offset="0.7418" style="stop-color:#4177CF"/>
					<stop  offset="1" style="stop-color:#4782D9"/>
				</linearGradient>
				<path id="XMLID_14_" style="fill:url(#XMLID_00000167359654829631044960000011942225832875546262_);" d="M427.8,148.4
					L267.2,55.6c-2.2-1.3-4.9,0.3-4.9,2.8v121.1c0,2.5,1.3,4.9,3.5,6.1l160.7,92.8c2.2,1.3,4.9-0.3,4.9-2.8V154.5
					C431.4,152,430,149.6,427.8,148.4z"/>
				<path id="XMLID_151_" class="st1" d="M425.8,149.7L265.1,57c-2.2-1.3-4.9,0.3-4.9,2.8v121.1c0,2.5,1.3,4.9,3.5,6.1l160.6,92.7
					c2.2,1.3,4.9-0.3,4.9-2.8v-121C429.3,153.3,428,151,425.8,149.7z"/>
				<polygon id="XMLID_152_" class="st2" points="419.8,157.4 268.6,69.6 268.6,180.4 419.8,268.1 				"/>
				
					<linearGradient id="XMLID_00000008136919758648311530000006512919978672312753_" gradientUnits="userSpaceOnUse" x1="150.7253" y1="-1858.1187" x2="426.6385" y2="-1858.1187" gradientTransform="matrix(1 0 0 -1 0 -1588)">
					<stop  offset="0" style="stop-color:#2842A2"/>
					<stop  offset="0.2827" style="stop-color:#3358B5"/>
					<stop  offset="0.7418" style="stop-color:#4177CF"/>
					<stop  offset="1" style="stop-color:#4782D9"/>
				</linearGradient>
				<path id="XMLID_11_" style="fill:url(#XMLID_00000008136919758648311530000006512919978672312753_);" d="M253.7,192.8
					l-102.9,54.3c0,0-0.6,8,1.6,9.3l157.6,91c4,2.3,9,2.3,13,0l101.2-57.9c4.2-2.6,1.7-9.3,1.7-9.3l-159.3-87.4
					C262.7,190.6,257.8,190.5,253.7,192.8z"/>
				<path id="XMLID_153_" class="st4" d="M253.7,186.6l-101.2,57.9c-2.2,1.3-2.2,4.4,0,5.7l157.6,91c4,2.3,9,2.3,13,0l101.2-57.9
					c2.2-1.3,2.2-4.4,0-5.7l-157.6-91C262.7,184.3,257.8,184.3,253.7,186.6z"/>
				<path id="XMLID_155_" class="st1" d="M244.8,261.5l-26.7,15.3c-0.6,0.3-0.6,1.2,0,1.5l41.5,24c1.1,0.6,2.4,0.6,3.4,0l26.7-15.3
					c0.6-0.3,0.6-1.2,0-1.5l-41.5-24C247.1,260.9,245.8,260.9,244.8,261.5z"/>
				<path id="XMLID_154_" class="st1" d="M264.9,195.5l8.7,5c0.3,0.2,0.3,0.7,0,0.9l-4.3,2.5c-0.3,0.2-0.8,0.2-1.1,0l-8.7-5
					c-0.3-0.2-0.3-0.7,0-0.9l4.3-2.5C264.1,195.3,264.5,195.3,264.9,195.5z"/>
				<path id="XMLID_156_" class="st1" d="M277.7,203.1l8.7,5c0.3,0.2,0.3,0.7,0,0.9l-4.3,2.5c-0.3,0.2-0.8,0.2-1.1,0l-8.7-5
					c-0.3-0.2-0.3-0.7,0-0.9l4.3-2.5C276.9,202.9,277.3,202.9,277.7,203.1z"/>
				<path id="XMLID_158_" class="st1" d="M290.5,210.3l8.7,5c0.3,0.2,0.3,0.7,0,0.9l-4.3,2.5c-0.3,0.2-0.8,0.2-1.1,0l-8.7-5
					c-0.3-0.2-0.3-0.7,0-0.9l4.3-2.5C289.7,210.1,290.2,210.1,290.5,210.3z"/>
				<path id="XMLID_160_" class="st1" d="M303.7,217.7l8.7,5c0.3,0.2,0.3,0.7,0,0.9l-4.3,2.5c-0.3,0.2-0.8,0.2-1.1,0l-8.7-5
					c-0.3-0.2-0.3-0.7,0-0.9l4.3-2.5C302.9,217.5,303.4,217.5,303.7,217.7z"/>
				<path id="XMLID_162_" class="st1" d="M316.4,224.8l8.7,5c0.3,0.2,0.3,0.7,0,0.9l-4.3,2.5c-0.3,0.2-0.8,0.2-1.1,0l-8.7-5
					c-0.3-0.2-0.3-0.7,0-0.9l4.3-2.5C315.6,224.6,316.1,224.6,316.4,224.8z"/>
				<path id="XMLID_164_" class="st1" d="M328.7,232.4l8.7,5c0.3,0.2,0.3,0.7,0,0.9l-4.3,2.5c-0.3,0.2-0.8,0.2-1.1,0l-8.7-5
					c-0.3-0.2-0.3-0.7,0-0.9l4.3-2.5C328,232.2,328.4,232.2,328.7,232.4z"/>
				<path id="XMLID_166_" class="st1" d="M341.7,239.5l8.7,5c0.3,0.2,0.3,0.7,0,0.9l-4.3,2.5c-0.3,0.2-0.8,0.2-1.1,0l-8.7-5
					c-0.3-0.2-0.3-0.7,0-0.9l4.3-2.5C340.9,239.3,341.3,239.3,341.7,239.5z"/>
				<path id="XMLID_168_" class="st1" d="M354.4,247.1l8.7,5c0.3,0.2,0.3,0.7,0,0.9l-4.3,2.5c-0.3,0.2-0.8,0.2-1.1,0l-8.7-5
					c-0.3-0.2-0.3-0.7,0-0.9l4.3-2.5C353.6,246.9,354,246.9,354.4,247.1z"/>
				<path id="XMLID_170_" class="st1" d="M366.9,254.5l8.7,5c0.3,0.2,0.3,0.7,0,0.9l-4.3,2.5c-0.3,0.2-0.8,0.2-1.1,0l-8.7-5
					c-0.3-0.2-0.3-0.7,0-0.9l4.3-2.5C366.1,254.3,366.6,254.3,366.9,254.5z"/>
				<path id="XMLID_172_" class="st1" d="M380.1,262.1l8.7,5c0.3,0.2,0.3,0.7,0,0.9l-4.3,2.5c-0.3,0.2-0.8,0.2-1.1,0l-8.7-5
					c-0.3-0.2-0.3-0.7,0-0.9l4.3-2.5C379.3,261.9,379.8,261.9,380.1,262.1z"/>
				<path id="XMLID_174_" class="st1" d="M392.9,269.3l8.7,5c0.3,0.2,0.3,0.7,0,0.9l-4.3,2.5c-0.3,0.2-0.8,0.2-1.1,0l-8.7-5
					c-0.3-0.2-0.3-0.7,0-0.9l4.3-2.5C392.1,269.1,392.6,269.1,392.9,269.3z"/>
				<g id="XMLID_185_">
					<path id="XMLID_157_" class="st1" d="M247.2,204.9l5.9-3.5c0.8-0.4,1.7-0.5,2.5,0l5.8,3.3c0.8,0.5,0.8,1.6,0,2.1l-5.7,3.5
						c-0.8,0.5-1.7,0.5-2.5,0l-5.9-3.4C246.3,206.6,246.3,205.4,247.2,204.9z"/>
					<path id="XMLID_1_" class="st1" d="M260.4,212.6l5.9-3.5c0.8-0.4,1.7-0.5,2.5,0l5.8,3.3c0.8,0.5,0.8,1.6,0,2.1l-5.7,3.5
						c-0.8,0.5-1.7,0.5-2.5,0l-5.9-3.4C259.6,214.2,259.6,213,260.4,212.6z"/>
					<path id="XMLID_2_" class="st1" d="M273.2,219.8l5.9-3.5c0.8-0.4,1.7-0.5,2.5,0l5.8,3.3c0.8,0.5,0.8,1.6,0,2.1l-5.7,3.5
						c-0.8,0.5-1.7,0.5-2.5,0l-5.9-3.4C272.4,221.4,272.4,220.2,273.2,219.8z"/>
					<path id="XMLID_3_" class="st1" d="M286.9,227.2l5.9-3.5c0.8-0.4,1.7-0.5,2.5,0l5.8,3.3c0.8,0.5,0.8,1.6,0,2.1l-5.7,3.5
						c-0.8,0.5-1.7,0.5-2.5,0l-5.9-3.4C286.1,228.9,286.1,227.7,286.9,227.2z"/>
					<path id="XMLID_4_" class="st1" d="M298.9,234.3l5.9-3.5c0.8-0.4,1.7-0.5,2.5,0l5.8,3.3c0.8,0.5,0.8,1.6,0,2.1l-5.7,3.5
						c-0.8,0.5-1.7,0.5-2.5,0l-5.9-3.4C298.1,235.9,298.1,234.8,298.9,234.3z"/>
					<path id="XMLID_5_" class="st1" d="M311.2,241.9l5.9-3.5c0.8-0.4,1.7-0.5,2.5,0l5.8,3.3c0.8,0.5,0.8,1.6,0,2.1l-5.7,3.5
						c-0.8,0.5-1.7,0.5-2.5,0l-5.9-3.4C310.4,243.5,310.3,242.3,311.2,241.9z"/>
					<path id="XMLID_6_" class="st1" d="M324.2,249l5.9-3.5c0.8-0.4,1.7-0.5,2.5,0l5.8,3.3c0.8,0.5,0.8,1.6,0,2.1l-5.7,3.5
						c-0.8,0.5-1.7,0.5-2.5,0l-5.9-3.4C323.4,250.7,323.4,249.5,324.2,249z"/>
					<path id="XMLID_7_" class="st1" d="M337,256.3l5.9-3.5c0.8-0.4,1.7-0.5,2.5,0l5.8,3.3c0.8,0.5,0.8,1.6,0,2.1l-5.7,3.5
						c-0.8,0.5-1.7,0.5-2.5,0l-5.9-3.4C336.2,257.9,336.2,256.8,337,256.3z"/>
					<path id="XMLID_8_" class="st1" d="M349.6,264l5.9-3.5c0.8-0.4,1.7-0.5,2.5,0l5.8,3.3c0.8,0.5,0.8,1.6,0,2.1l-5.7,3.5
						c-0.8,0.5-1.7,0.5-2.5,0l-5.9-3.4C348.8,265.6,348.8,264.5,349.6,264z"/>
					<path id="XMLID_9_" class="st1" d="M363.3,272.1l5.9-3.5c0.8-0.4,1.7-0.5,2.5,0l5.8,3.3c0.8,0.5,0.8,1.6,0,2.1l-5.7,3.5
						c-0.8,0.5-1.7,0.5-2.5,0l-5.9-3.4C362.5,273.7,362.5,272.5,363.3,272.1z"/>
					<path id="XMLID_10_" class="st1" d="M375.7,278.8l5.9-3.5c0.8-0.4,1.7-0.5,2.5,0l5.8,3.3c0.8,0.5,0.8,1.6,0,2.1l-5.7,3.5
						c-0.8,0.5-1.7,0.5-2.5,0l-5.9-3.4C374.9,280.4,374.9,279.3,375.7,278.8z"/>
				</g>
				<g id="XMLID_12_">
					<path id="XMLID_134_" class="st1" d="M234,212.1l5.9-3.5c0.8-0.4,1.7-0.5,2.5,0l5.8,3.3c0.8,0.5,0.8,1.6,0,2.1l-5.7,3.5
						c-0.8,0.5-1.7,0.5-2.5,0l-5.9-3.4C233.2,213.8,233.2,212.6,234,212.1z"/>
					<path id="XMLID_133_" class="st1" d="M247.2,219.7l5.9-3.5c0.8-0.4,1.7-0.5,2.5,0l5.8,3.3c0.8,0.5,0.8,1.6,0,2.1l-5.7,3.5
						c-0.8,0.5-1.7,0.5-2.5,0l-5.9-3.4C246.4,221.4,246.4,220.2,247.2,219.7z"/>
					<path id="XMLID_132_" class="st1" d="M260.1,226.9l5.9-3.5c0.8-0.4,1.7-0.5,2.5,0l5.8,3.3c0.8,0.5,0.8,1.6,0,2.1l-5.7,3.5
						c-0.8,0.5-1.7,0.5-2.5,0l-5.9-3.4C259.3,228.6,259.2,227.4,260.1,226.9z"/>
					<path id="XMLID_131_" class="st1" d="M273.7,234.4l5.9-3.5c0.8-0.4,1.7-0.5,2.5,0l5.8,3.3c0.8,0.5,0.8,1.6,0,2.1l-5.7,3.5
						c-0.8,0.5-1.7,0.5-2.5,0l-5.9-3.4C272.9,236,272.9,234.8,273.7,234.4z"/>
					<path id="XMLID_130_" class="st1" d="M285.8,241.4l5.9-3.5c0.8-0.4,1.7-0.5,2.5,0l5.8,3.3c0.8,0.5,0.8,1.6,0,2.1l-5.7,3.5
						c-0.8,0.5-1.7,0.5-2.5,0l-5.9-3.4C285,243.1,285,241.9,285.8,241.4z"/>
					<path id="XMLID_129_" class="st1" d="M298,249l5.9-3.5c0.8-0.4,1.7-0.5,2.5,0l5.8,3.3c0.8,0.5,0.8,1.6,0,2.1l-5.7,3.5
						c-0.8,0.5-1.7,0.5-2.5,0l-5.9-3.4C297.2,250.7,297.2,249.5,298,249z"/>
					<path id="XMLID_128_" class="st1" d="M311.1,256.2l5.9-3.5c0.8-0.4,1.7-0.5,2.5,0l5.8,3.3c0.8,0.5,0.8,1.6,0,2.1l-5.7,3.5
						c-0.8,0.5-1.7,0.5-2.5,0l-5.9-3.4C310.3,257.8,310.3,256.7,311.1,256.2z"/>
					<path id="XMLID_127_" class="st1" d="M323.9,263.4l5.9-3.5c0.8-0.4,1.7-0.5,2.5,0l5.8,3.3c0.8,0.5,0.8,1.6,0,2.1l-5.7,3.5
						c-0.8,0.5-1.7,0.5-2.5,0l-5.9-3.4C323.1,265.1,323,263.9,323.9,263.4z"/>
					<path id="XMLID_126_" class="st1" d="M336.4,271.1l5.9-3.5c0.8-0.4,1.7-0.5,2.5,0l5.8,3.3c0.8,0.5,0.8,1.6,0,2.1l-5.7,3.5
						c-0.8,0.5-1.7,0.5-2.5,0l-5.9-3.4C335.6,272.8,335.6,271.6,336.4,271.1z"/>
					<path id="XMLID_125_" class="st1" d="M350.1,279.2l5.9-3.5c0.8-0.4,1.7-0.5,2.5,0l5.8,3.3c0.8,0.5,0.8,1.6,0,2.1l-5.7,3.5
						c-0.8,0.5-1.7,0.5-2.5,0l-5.9-3.4C349.3,280.9,349.3,279.7,350.1,279.2z"/>
					<path id="XMLID_13_" class="st1" d="M362.5,285.9l5.9-3.5c0.8-0.4,1.7-0.5,2.5,0l5.8,3.3c0.8,0.5,0.8,1.6,0,2.1l-5.7,3.5
						c-0.8,0.5-1.7,0.5-2.5,0l-5.9-3.4C361.7,287.6,361.7,286.4,362.5,285.9z"/>
				</g>
				<g id="XMLID_177_">
					<path id="XMLID_189_" class="st1" d="M220.8,219.3l5.9-3.5c0.8-0.4,1.7-0.5,2.5,0l5.8,3.3c0.8,0.5,0.8,1.6,0,2.1l-5.7,3.5
						c-0.8,0.5-1.7,0.5-2.5,0l-5.9-3.4C220,220.9,220,219.7,220.8,219.3z"/>
					<path id="XMLID_188_" class="st1" d="M234,226.9l5.9-3.5c0.8-0.4,1.7-0.5,2.5,0l5.8,3.3c0.8,0.5,0.8,1.6,0,2.1l-5.7,3.5
						c-0.8,0.5-1.7,0.5-2.5,0l-5.9-3.4C233.2,228.5,233.2,227.4,234,226.9z"/>
					<path id="XMLID_187_" class="st1" d="M246.9,234.1l5.9-3.5c0.8-0.4,1.7-0.5,2.5,0l5.8,3.3c0.8,0.5,0.8,1.6,0,2.1l-5.7,3.5
						c-0.8,0.5-1.7,0.5-2.5,0l-5.9-3.4C246.1,235.7,246.1,234.6,246.9,234.1z"/>
					<path id="XMLID_186_" class="st1" d="M260.6,241.5l5.9-3.5c0.8-0.4,1.7-0.5,2.5,0l5.8,3.3c0.8,0.5,0.8,1.6,0,2.1l-5.7,3.5
						c-0.8,0.5-1.7,0.5-2.5,0l-5.9-3.4C259.8,243.2,259.7,242,260.6,241.5z"/>
					<path id="XMLID_184_" class="st1" d="M272.6,248.6l5.9-3.5c0.8-0.4,1.7-0.5,2.5,0l5.8,3.3c0.8,0.5,0.8,1.6,0,2.1l-5.7,3.5
						c-0.8,0.5-1.7,0.5-2.5,0l-5.9-3.4C271.8,250.3,271.8,249.1,272.6,248.6z"/>
					<path id="XMLID_183_" class="st1" d="M284.8,256.2l5.9-3.5c0.8-0.4,1.7-0.5,2.5,0l5.8,3.3c0.8,0.5,0.8,1.6,0,2.1l-5.7,3.5
						c-0.8,0.5-1.7,0.5-2.5,0l-5.9-3.4C284,257.8,284,256.7,284.8,256.2z"/>
					<path id="XMLID_182_" class="st1" d="M297.9,263.3l5.9-3.5c0.8-0.4,1.7-0.5,2.5,0l5.8,3.3c0.8,0.5,0.8,1.6,0,2.1l-5.7,3.5
						c-0.8,0.5-1.7,0.5-2.5,0l-5.9-3.4C297.1,265,297.1,263.8,297.9,263.3z"/>
					<path id="XMLID_181_" class="st1" d="M310.7,270.6l5.9-3.5c0.8-0.4,1.7-0.5,2.5,0l5.8,3.3c0.8,0.5,0.8,1.6,0,2.1l-5.7,3.5
						c-0.8,0.5-1.7,0.5-2.5,0l-5.9-3.4C309.9,272.2,309.9,271.1,310.7,270.6z"/>
					<path id="XMLID_180_" class="st1" d="M323.3,278.3l5.9-3.5c0.8-0.4,1.7-0.5,2.5,0l5.8,3.3c0.8,0.5,0.8,1.6,0,2.1l-5.7,3.5
						c-0.8,0.5-1.7,0.5-2.5,0l-5.9-3.4C322.5,280,322.5,278.8,323.3,278.3z"/>
					<path id="XMLID_179_" class="st1" d="M337,286.4l5.9-3.5c0.8-0.4,1.7-0.5,2.5,0l5.8,3.3c0.8,0.5,0.8,1.6,0,2.1l-5.7,3.5
						c-0.8,0.5-1.7,0.5-2.5,0l-5.9-3.4C336.2,288,336.2,286.9,337,286.4z"/>
					<path id="XMLID_178_" class="st1" d="M349.4,293.1l5.9-3.5c0.8-0.4,1.7-0.5,2.5,0l5.8,3.3c0.8,0.5,0.8,1.6,0,2.1l-5.7,3.5
						c-0.8,0.5-1.7,0.5-2.5,0l-5.9-3.4C348.6,294.8,348.6,293.6,349.4,293.1z"/>
				</g>
				<g id="XMLID_202_">
					<path id="XMLID_213_" class="st1" d="M207.7,226.4l5.9-3.5c0.8-0.4,1.7-0.5,2.5,0l5.8,3.3c0.8,0.5,0.8,1.6,0,2.1l-5.7,3.5
						c-0.8,0.5-1.7,0.5-2.5,0l-5.9-3.4C206.8,228.1,206.8,226.9,207.7,226.4z"/>
					<path id="XMLID_212_" class="st1" d="M220.9,234l5.9-3.5c0.8-0.4,1.7-0.5,2.5,0l5.8,3.3c0.8,0.5,0.8,1.6,0,2.1l-5.7,3.5
						c-0.8,0.5-1.7,0.5-2.5,0L221,236C220.1,235.7,220.1,234.5,220.9,234z"/>
					<path id="XMLID_211_" class="st1" d="M233.7,241.2l5.9-3.5c0.8-0.4,1.7-0.5,2.5,0l5.8,3.3c0.8,0.5,0.8,1.6,0,2.1l-5.7,3.5
						c-0.8,0.5-1.7,0.5-2.5,0l-5.9-3.4C232.9,242.9,232.9,241.7,233.7,241.2z"/>
					<path id="XMLID_210_" class="st1" d="M247.4,248.7l5.9-3.5c0.8-0.4,1.7-0.5,2.5,0l5.8,3.3c0.8,0.5,0.8,1.6,0,2.1l-5.7,3.5
						c-0.8,0.5-1.7,0.5-2.5,0l-5.9-3.4C246.6,250.3,246.6,249.2,247.4,248.7z"/>
					<path id="XMLID_208_" class="st1" d="M260.6,256.5l5.9-3.5c0.8-0.4,1.7-0.5,2.5,0l30,17.4c0.8,0.5,0.8,1.6,0,2.1l-5.7,3.5
						c-0.8,0.5-1.7,0.5-2.5,0l-30.2-17.4C259.8,258.2,259.7,257,260.6,256.5z"/>
					<path id="XMLID_206_" class="st1" d="M297.5,277.8l5.9-3.5c0.8-0.4,1.7-0.5,2.5,0l5.8,3.3c0.8,0.5,0.8,1.6,0,2.1l-5.7,3.5
						c-0.8,0.5-1.7,0.5-2.5,0l-5.9-3.4C296.7,279.4,296.7,278.2,297.5,277.8z"/>
					<path id="XMLID_205_" class="st1" d="M310.1,285.5l5.9-3.5c0.8-0.4,1.7-0.5,2.5,0l5.8,3.3c0.8,0.5,0.8,1.6,0,2.1l-5.7,3.5
						c-0.8,0.5-1.7,0.5-2.5,0l-5.9-3.4C309.3,287.1,309.3,285.9,310.1,285.5z"/>
					<path id="XMLID_204_" class="st1" d="M323.8,293.5l5.9-3.5c0.8-0.4,1.7-0.5,2.5,0l5.8,3.3c0.8,0.5,0.8,1.6,0,2.1l-5.7,3.5
						c-0.8,0.5-1.7,0.5-2.5,0l-5.9-3.4C323,295.2,323,294,323.8,293.5z"/>
					<path id="XMLID_203_" class="st1" d="M336.2,300.3l5.9-3.5c0.8-0.4,1.7-0.5,2.5,0l5.8,3.3c0.8,0.5,0.8,1.6,0,2.1l-5.7,3.5
						c-0.8,0.5-1.7,0.5-2.5,0l-5.9-3.4C335.4,301.9,335.4,300.7,336.2,300.3z"/>
				</g>
			</g>
			<path class="st5" d="M337,121.3c-1.8-1-4,0.2-4,2.3v5.3V217l0,0v3.1l0,0v1.2c-1.6,1-3.2,2-4.9,2.6l0.9,2.4c1.4-0.5,2.7-1.2,4-1.9
				v4.6v0.8c0,2.8,1.5,5.4,3.9,6.8l19.9,11.5l0.6,0.4l0,0l26.1,15.2l0,0l0.6,0.4l43.9,25.5c0.2-0.2,0.5-0.4,0.7-0.7
				c1.4-0.3,2.6-1.5,2.6-3.2V176.4L337,121.3z"/>
			<g>
				
					<linearGradient id="XMLID_00000076566539865474341710000002151754624333951668_" gradientUnits="userSpaceOnUse" x1="333.1" y1="-1812.4635" x2="485.8" y2="-1812.4635" gradientTransform="matrix(1 0 0 -1 0 -1588)">
					<stop  offset="0" style="stop-color:#2842A2"/>
					<stop  offset="0.2827" style="stop-color:#3358B5"/>
					<stop  offset="0.7418" style="stop-color:#4177CF"/>
					<stop  offset="1" style="stop-color:#4782D9"/>
				</linearGradient>
				<path id="XMLID_173_" style="fill:url(#XMLID_00000076566539865474341710000002151754624333951668_);" d="M481.8,209.7
					l-142.3-82.8c-2.5-1.5-5.7,0.1-6.1,3l-0.3,2.5v100.4c0,2.8,1.5,5.4,3.9,6.8l142.1,83h1.8c2.7,0,4.9-2.2,4.9-4.9V216.5
					C485.7,213.7,484.2,211.1,481.8,209.7z"/>
				<path id="XMLID_171_" class="st2" d="M477.9,212.3L337,130.5c-1.8-1-4,0.2-4,2.3v100.8c0,2.8,1.5,5.4,3.9,6.8l140.9,81.8
					c1.8,1,4-0.2,4-2.3V219.1C481.8,216.3,480.3,213.7,477.9,212.3z"/>
				<path class="st7" d="M481.8,242.4v-2.9c-0.4-0.2-0.7-0.4-1.1-0.6c-2-1.1-4-2.2-6.2-2.6c-5.9-1.1-11.6,1-16,2.9
					c-2.5,1.1-4.3,2.8-5.9,4.4c-2.5,2.3-4.4,4.2-7.9,3.8c-4.4-0.5-6.9-6.3-8.9-10.9c-0.3-0.7-0.6-1.4-0.9-2.1
					c-0.5-1.2-1-2.3-1.5-3.5c-2.5-5.9-5-12-12-16c-6.1-3.5-13.3-2.9-20.1,1.7c-0.8,0.5-1.6,1.1-2.5,1.7c-4.7,3.3-9.6,6.7-14.6,5.6
					c-2.6-0.6-5.3-3.2-8.2-5.9c-3.9-3.8-8.4-8.1-14.3-8.9c-6.7-0.9-12.1-0.2-16.4,2.2c-2,1.1-4.1,2.9-6.3,4.8
					c-1.9,1.6-3.9,3.4-6,4.8v3.1c2.8-1.8,5.4-4,7.7-6c2.1-1.8,4.1-3.6,5.8-4.5c3.8-2.1,8.6-2.7,14.8-1.9c5.1,0.7,9,4.5,12.8,8.2
					c3.1,3,6.1,5.9,9.5,6.6c6.1,1.3,11.7-2.6,16.6-6c0.8-0.6,1.6-1.1,2.4-1.7c3.5-2.3,10.4-5.6,17.4-1.6c6.3,3.6,8.5,9,10.9,14.7
					c0.5,1.2,1,2.4,1.5,3.5c0.3,0.6,0.6,1.3,0.9,2c2.1,5,5.1,11.8,11,12.5c0.4,0,0.8,0.1,1.2,0.1c3.9,0,6.3-2.3,8.7-4.5
					c1.6-1.5,3.2-3,5.2-3.9c4-1.8,9.2-3.7,14.4-2.7c1.8,0.4,3.6,1.3,5.4,2.4C480.2,241.6,481,242,481.8,242.4z"/>
				<g id="XMLID_169_">
					<path class="st8" d="M445,254.1c-0.4,0-0.8,0-1.3-0.1c-6.6-0.8-10.8-7-13.1-12.2c-0.9-1.9-1.6-3.9-2.4-5.9
						c-2-5.3-3.9-10.4-8-14.1c-6.1-5.6-14.4-0.8-16.8,0.8c-0.6,0.4-1.2,0.8-1.8,1.2c-5,3.4-10.8,7.3-17.1,6.4
						c-5.3-0.7-9.2-4.4-13-7.9c-3-2.8-6-5.7-9.6-6.9c-4.3-1.5-9.5-0.8-14.5,2c-1.7,0.9-3.7,2.7-5.8,4.5c-3.6,3.1-7.6,6.6-12.4,8.3
						l-0.9-2.4c4.3-1.5,8.1-4.9,11.5-7.9c2.2-1.9,4.3-3.8,6.3-4.8c5.6-3.1,11.7-3.9,16.6-2.1c4.2,1.5,7.4,4.5,10.6,7.5
						c3.6,3.4,7.1,6.7,11.6,7.2c5.4,0.7,10.5-2.7,15.3-6c0.6-0.4,1.2-0.8,1.9-1.2c7.5-5,15-5.1,20-0.5c4.5,4.1,6.6,9.7,8.7,15.1
						c0.7,1.9,1.5,3.9,2.3,5.7c2,4.5,5.6,10,11.1,10.7c4.2,0.5,7.4-2.2,10.8-5c1.3-1.1,2.7-2.3,4.2-3.2c4.6-3,10.5-4.1,16.1-3
						c2.2,0.4,4.3,1.6,6.2,2.6c2.6,1.4,5,2.8,7.6,2.4l0.4,2.6c-3.5,0.5-6.4-1.1-9.3-2.7c-1.9-1-3.6-2-5.4-2.4c-5-1-10.1,0-14.2,2.6
						c-1.3,0.9-2.6,1.9-3.9,3C453.3,251,449.7,254.1,445,254.1z"/>
				</g>
				<polygon class="st1" points="446,241.2 445.3,241.2 445.3,303.3 446,303.7 				"/>
				<polygon class="st1" points="356.8,251.9 357.5,252.3 357.5,204.7 356.8,204.7 				"/>
				<polygon class="st1" points="383.6,267.5 384.2,267.8 384.2,217.6 383.6,217.6 				"/>
				<polygon class="st1" points="415.2,285.8 415.8,286.2 415.8,204.7 415.2,204.7 				"/>
				<path class="st1" d="M358.1,204.7c0,0.7-0.4,1.3-1,1.3s-1-0.6-1-1.3s0.4-1.3,1-1.3S358.1,203.9,358.1,204.7z"/>
				<path class="st1" d="M384.9,217.6c0,0.7-0.4,1.3-1,1.3s-1-0.6-1-1.3s0.4-1.3,1-1.3S384.9,216.8,384.9,217.6z"/>
				<path class="st1" d="M416.5,204.7c0,0.7-0.4,1.3-1,1.3s-1-0.6-1-1.3s0.4-1.3,1-1.3C416,203.4,416.5,203.9,416.5,204.7z"/>
				<ellipse class="st1" cx="445.6" cy="241.2" rx="1" ry="1.3"/>
			</g>
			<path class="st5" d="M350,160.4l-20-11.5v-14.3c0-1.6-0.8-3-2.2-3.8l-52.4-30c-1.7-1-3.7,0.2-3.7,2.1v3.4v9l-11.4-6.6v80.6
				c0,1.5,0.5,2.9,1.3,4.1c-2.7-0.3-5.4,0.3-7.8,1.6l-16.5,12.5L349.9,273c1.7,1,3.8-0.2,3.8-2.2v-104
				C353.7,164.2,352.3,161.7,350,160.4z"/>
			<g>
				
					<linearGradient id="XMLID_00000080181265603396931400000011379104151952333710_" gradientUnits="userSpaceOnUse" x1="202.2" y1="-1763.6337" x2="347.6" y2="-1763.6337" gradientTransform="matrix(1 0 0 -1 0 -1588)">
					<stop  offset="0" style="stop-color:#2842A2"/>
					<stop  offset="0.2444" style="stop-color:#2A46A6"/>
					<stop  offset="0.4993" style="stop-color:#3053B0"/>
					<stop  offset="0.758" style="stop-color:#3A67C2"/>
					<stop  offset="1" style="stop-color:#4782D9"/>
				</linearGradient>
				<path id="XMLID_36_" style="fill:url(#XMLID_00000080181265603396931400000011379104151952333710_);" d="M343.8,160.4L211.1,84
					c-3.3-1.9-7.6-0.3-8.9,3.3v0.1v96.2c0,2.7,1.7,4.9,4,6.2l134.2,77.9l2,0.3c2.7,0.5,5.2-1.6,5.2-4.4v-96.7
					C347.5,164.2,346.1,161.7,343.8,160.4z"/>
				<path id="XMLID_35_" class="st2" d="M340.1,162.9L206,85.6c-1.7-1-3.8,0.2-3.8,2.2v95.4c0,2.7,1.4,5.1,3.7,6.4L340,267.5
					c1.7,1,3.8-0.2,3.8-2.2v-96C343.8,166.6,342.4,164.2,340.1,162.9z"/>
				<g id="XMLID_34_">
					<polygon class="st7" points="235.8,127 210.5,112.4 210.6,109.5 235.8,124.1 					"/>
				</g>
				<g id="XMLID_33_">
					<polygon class="st7" points="235.8,134.2 210.5,119.6 210.6,116.8 235.8,131.3 					"/>
				</g>
				<g id="XMLID_32_">
					<polygon class="st7" points="224.4,134.9 210.5,126.9 210.6,124.1 224.4,132.1 					"/>
				</g>
				<path class="st1" d="M340.1,162.9L206,85.6c-1.7-1-3.8,0.2-3.8,2.2v4.9l141.6,81.5v-4.9C343.8,166.6,342.4,164.2,340.1,162.9z"
					/>
				<path class="st8" d="M343.3,199c-1.6-3.5-4-8.7-8.4-9.2c-4.9-0.6-9.5,5-11.5,8.9c-2.2,4.3-7.1,11.7-13,10.1
					c-5.8-1.7-6.4-10.3-6.6-15.1c-0.4-9.7-0.7-27.5-13.6-29.2c-12.2-1.6-16.9,9.9-21.8,18.7c-3.6,6.4-11,14.5-19.3,11.2
					c-5.8-2.3-9-8.6-11.8-13.8c-5.3-10.1-11.2-21.3-23.7-12.7c-1,0.7-7.1,5.5-11.5,10.2v5c0,2.7,1.4,5.1,3.7,6.4l134.1,77.9
					c1.7,1,3.8-0.2,3.8-2.2v-65C343.6,199.8,343.5,199.4,343.3,199z"/>
				
					<linearGradient id="SVGID_1_" gradientUnits="userSpaceOnUse" x1="265.5" y1="-1721.15" x2="323.8" y2="-1721.15" gradientTransform="matrix(1 0 0 -1 0 -1588)">
					<stop  offset="0" style="stop-color:#2E4FAD"/>
					<stop  offset="0.142" style="stop-color:#3258B5"/>
					<stop  offset="0.6912" style="stop-color:#4177CF"/>
					<stop  offset="1" style="stop-color:#4782D9"/>
				</linearGradient>
				<path class="st10" d="M321.6,130.7l-52.4-30c-1.7-1-3.7,0.2-3.7,2.1v28.7c0,1.6,0.8,3,2.2,3.8l22.6,12.8l11.5,6.7l18.3,10.8
					c1.7,1,3.7-0.2,3.7-2.1v-29C323.8,133,322.9,131.5,321.6,130.7z"/>
				<path id="XMLID_30_" class="st1" d="M265.5,106.3v25.3c0,1.6,0.8,3,2.2,3.8l19.8,11.5l2.3,8.6c0.3,1.3,1.8,1.9,2.9,1.3l6.2-3.2
					l18.3,10.8c1.7,1,3.7-0.2,3.7-2.1v-25.6c0-1.6-0.8-3-2.2-3.8L269,104.2C267.5,103.2,265.5,104.4,265.5,106.3z"/>
				<path class="st2" d="M211.2,93.1c-0.4,0.8-1.3,1.1-1.9,0.8c-0.6-0.4-0.8-1.3-0.4-2.1c0.4-0.8,1.3-1.1,1.9-0.8
					C211.5,91.3,211.6,92.3,211.2,93.1z"/>
				<path class="st2" d="M216.3,95.8c-0.4,0.8-1.3,1.1-1.9,0.8c-0.6-0.4-0.8-1.3-0.4-2.1c0.4-0.8,1.3-1.1,1.9-0.8
					C216.6,94.1,216.7,95,216.3,95.8z"/>
				<path class="st2" d="M221.4,98.5c-0.4,0.8-1.3,1.1-1.9,0.8c-0.6-0.4-0.8-1.3-0.4-2.1c0.4-0.8,1.3-1.1,1.9-0.8
					C221.7,96.8,221.8,97.7,221.4,98.5z"/>
			</g>
			<path class="st5" d="M455.7,276.4l-86.5-49.8c-1.1-0.6-2.4,0.1-2.4,1.4v2.8v4.7v22.2l16.7,9.7l0,0l0.6,0.4l61.1,35.5l0.6,0.4
				l12,7v-30.3C458,278.7,457.1,277.2,455.7,276.4z"/>
			<g>
				
					<linearGradient id="XMLID_00000055706092579100241760000016504005305392732802_" gradientUnits="userSpaceOnUse" x1="361.4" y1="-1877.65" x2="452.6" y2="-1877.65" gradientTransform="matrix(1 0 0 -1 0 -1588)">
					<stop  offset="0" style="stop-color:#2842A2"/>
					<stop  offset="0.2827" style="stop-color:#3358B5"/>
					<stop  offset="0.7418" style="stop-color:#4177CF"/>
					<stop  offset="1" style="stop-color:#4782D9"/>
				</linearGradient>
				<path id="XMLID_121_" style="fill:url(#XMLID_00000055706092579100241760000016504005305392732802_);" d="M450.3,280.2
					l-86.5-49.8c-1.1-0.6-2.4,0.1-2.4,1.4v62.9c0,1.7,0.9,3.2,2.3,4l86.5,50.2c1.1,0.6,2.4-0.1,2.4-1.4v-63.3
					C452.6,282.6,451.7,281,450.3,280.2z"/>
				<path id="XMLID_120_" class="st1" d="M448,281.8l-84.2-48.5c-1.1-0.6-2.4,0.1-2.4,1.4v59.8c0,1.7,0.9,3.2,2.3,4l84.2,48.9
					c1.1,0.6,2.4-0.1,2.4-1.4v-60.2C450.3,284.1,449.4,282.6,448,281.8z"/>
				<g id="XMLID_119_">
					<polygon class="st2" points="446.1,304.9 366.7,259.7 366.7,257.9 446.1,303.2 					"/>
				</g>
				<g id="XMLID_118_">
					<polygon class="st8" points="383.6,260 368.4,251.3 368.4,248.6 383.6,257.3 					"/>
				</g>
				<g id="XMLID_117_">
					<polygon class="st2" points="445.9,312.7 366.5,267.4 366.5,265.6 445.9,310.9 					"/>
				</g>
				<g id="XMLID_116_">
					<polygon class="st2" points="445.8,320.4 366.4,275.1 366.4,273.3 445.8,318.6 					"/>
				</g>
				<g id="XMLID_115_">
					<polygon class="st2" points="445.6,328.1 366.2,282.8 366.2,281.1 445.6,326.3 					"/>
				</g>
				<g id="XMLID_114_">
					<polygon class="st2" points="411.1,316.3 366.1,290.6 366,288.8 411.1,314.5 					"/>
				</g>
				<path class="st2" d="M448,281.8l-84.2-48.5c-1.1-0.6-2.4,0.1-2.4,1.4v4.7l88.9,51.2v-4.7C450.3,284.1,449.4,282.6,448,281.8z"/>
				<path class="st1" d="M369.4,239.9c-0.4,0.8-1.3,1.1-2,0.8c-0.7-0.4-0.9-1.3-0.4-2.1c0.4-0.8,1.3-1.1,2-0.8
					C369.6,238.2,369.8,239.1,369.4,239.9z"/>
				<path class="st1" d="M373.4,242.2c-0.4,0.8-1.3,1.1-2,0.8c-0.7-0.4-0.9-1.3-0.4-2.1c0.4-0.8,1.3-1.1,2-0.8
					C373.7,240.5,373.9,241.4,373.4,242.2z"/>
				<path class="st1" d="M377.2,244.5c-0.4,0.8-1.3,1.1-2,0.8c-0.7-0.4-0.9-1.3-0.4-2.1c0.4-0.8,1.3-1.1,2-0.8
					C377.5,242.8,377.7,243.7,377.2,244.5z"/>
			</g>
			<g>
				
					<linearGradient id="XMLID_00000118376489706402232940000017898730358316082307_" gradientUnits="userSpaceOnUse" x1="63.2" y1="-1878.8311" x2="204.6" y2="-1878.8311" gradientTransform="matrix(1 0 0 -1 0 -1588)">
					<stop  offset="0" style="stop-color:#2842A2;stop-opacity:0.5"/>
					<stop  offset="1" style="stop-color:#2842A2;stop-opacity:0"/>
				</linearGradient>
				
					<path id="XMLID_00000117655380251700928630000018313440110555914160_" style="fill:url(#XMLID_00000118376489706402232940000017898730358316082307_);" d="
					M63.2,275.7v2c0,1.4,0.8,2.7,2,3.4l88.3,51c2.7,1.5,7,1.5,9.7,0l39.4-22.4c1.2-0.7,2-2,2-3.4l0,0c0-2.8-1.5-5.5-3.9-6.9
					l-86.2-49.8c-2.7-1.5-7-1.6-9.7,0l-39.7,22.9C63.9,273.1,63.2,274.3,63.2,275.7z"/>
				
					<linearGradient id="XMLID_00000089561021945751812170000008211917734123114904_" gradientUnits="userSpaceOnUse" x1="63.2" y1="-1877.8311" x2="204.6" y2="-1877.8311" gradientTransform="matrix(1 0 0 -1 0 -1588)">
					<stop  offset="0" style="stop-color:#2842A2"/>
					<stop  offset="0.2827" style="stop-color:#3358B5"/>
					<stop  offset="0.7418" style="stop-color:#4177CF"/>
					<stop  offset="1" style="stop-color:#4782D9"/>
				</linearGradient>
				<path id="XMLID_43_" style="fill:url(#XMLID_00000089561021945751812170000008211917734123114904_);" d="M63.2,274.7v2
					c0,1.4,0.8,2.7,2,3.4l88.3,51c2.7,1.5,7,1.5,9.7,0l39.4-22.4c1.2-0.7,2-2,2-3.4l0,0c0-2.8-1.5-5.5-3.9-6.9l-86.2-49.8
					c-2.7-1.5-7-1.6-9.7,0l-39.7,22.9C63.9,272.1,63.2,273.3,63.2,274.7z"/>
				<path id="XMLID_42_" class="st4" d="M65.2,271c-2.7,1.5-2.7,4,0,5.6l88.2,50.9c2.7,1.5,7,1.5,9.7,0l39.4-22.5
					c2.7-1.5,2.7-4,0-5.6l-88-50.7c-2.7-1.5-7-1.6-9.7,0L65.2,271z"/>
				<path id="XMLID_41_" class="st7" d="M182.4,314.2c2.6-1.5,2.6-4,0-5.5s-6.9-1.5-9.5,0s-2.6,4,0,5.5S179.7,315.7,182.4,314.2z"/>
				<g id="XMLID_40_">
					<path class="st1" d="M85.8,265.8c-0.1,0-0.3-0.1-0.3-0.2c-0.1-0.2,0-0.4,0.1-0.5l8.8-5.1c0.2-0.1,0.4,0,0.5,0.1
						c0.1,0.2,0,0.4-0.1,0.5l-8.8,5.1C86,265.8,85.9,265.8,85.8,265.8z"/>
				</g>
				<g id="XMLID_39_">
					<path class="st1" d="M95.9,260c-0.1,0-0.3-0.1-0.3-0.2c-0.1-0.2,0-0.4,0.1-0.5l2-1.1c0.2-0.1,0.4,0,0.5,0.1
						c0.1,0.2,0,0.4-0.1,0.5l-2,1.1C96,260,96,260,95.9,260z"/>
				</g>
				<polygon id="XMLID_38_" class="st1" points="72.2,278.5 117,252.3 191.1,295 146,321.2 				"/>
			</g>
			<g>
				
					<radialGradient id="XMLID_00000052102755292344747790000015572747132493332144_" cx="73.6" cy="-13187.5518" r="42.3381" gradientTransform="matrix(1 0 0 -0.5172 0 -6484.6372)" gradientUnits="userSpaceOnUse">
					<stop  offset="0" style="stop-color:#2842A2;stop-opacity:0.5"/>
					<stop  offset="1" style="stop-color:#2842A2;stop-opacity:0"/>
				</radialGradient>
				
					<ellipse id="XMLID_28_" style="fill:url(#XMLID_00000052102755292344747790000015572747132493332144_);" cx="73.6" cy="335.6" rx="42" ry="24.2"/>
				<path id="XMLID_27_" class="st15" d="M103,326.3h-3.4c-1.4-1.5-3.2-3-5.4-4.3c-11.7-6.7-30.8-6.7-42.5,0c-2.2,1.3-4,2.7-5.4,4.3
					h-3.4v7.9l0,0c0,4.5,2.9,8.9,8.8,12.3c11.7,6.7,30.8,6.7,42.5,0c5.9-3.4,8.8-7.9,8.8-12.3l0,0V326.3z"/>
				<path id="XMLID_26_" class="st8" d="M51.8,322.1c-2.2,1.3-4,2.7-5.4,4.3H43v7.9l0,0c0,4.5,2.9,8.9,8.8,12.3
					c0.2,0.1,0.4,0.2,0.6,0.3v-8l5.8-19.6C55.8,320,53.7,320.9,51.8,322.1z"/>
				<ellipse id="XMLID_25_" class="st16" cx="73" cy="326.3" rx="30" ry="17.3"/>
				<path id="XMLID_15_" class="st8" d="M73,309c-7.7,0-15.4,1.7-21.2,5.1c-11.7,6.7-11.7,17.8,0,24.5c0.2,0.1,0.4,0.2,0.6,0.3
					l20.7-9.8L73,309L73,309z"/>
				<path class="st1" d="M43.4,329H73v-20c-7.7,0-15.4,1.7-21.2,5.1C44.7,318.1,42,323.7,43.4,329z"/>
			</g>
			<g>
				<polygon id="XMLID_19_" class="st16" points="169.7,108.9 182.6,101.4 195.3,108.9 182.6,116.4 				"/>
				<polygon id="XMLID_175_" class="st15" points="169.7,108.9 169.7,212.9 182.6,220 182.6,116.4 				"/>
				<polygon id="XMLID_176_" class="st16" points="195.3,108.9 195.3,212.5 182.6,220 182.6,116.4 				"/>
				<polygon id="XMLID_192_" class="st8" points="148.9,156.5 161.9,149 174.5,156.5 161.9,163.9 				"/>
				<polygon id="XMLID_18_" class="st17" points="148.9,156.5 148.9,224.8 161.9,231.9 161.9,163.9 				"/>
				<polygon id="XMLID_17_" class="st8" points="174.5,156.5 174.5,224.4 161.9,231.9 161.9,163.9 				"/>
				<polygon id="XMLID_195_" class="st18" points="128.2,144.1 141.2,136.6 153.8,144.1 141.2,151.6 				"/>
				<polygon id="XMLID_194_" class="st1" points="128.2,144.1 128.2,236.7 141.2,243.8 141.2,151.6 				"/>
				<polygon id="XMLID_16_" class="st18" points="153.8,144.1 153.8,236.3 141.2,243.8 141.2,151.6 				"/>
			</g>
			
				<radialGradient id="XMLID_00000178902528849964808690000005471121578583257783_" cx="411.15" cy="-12458.7451" r="15.9263" gradientTransform="matrix(1 0 0 -0.5358 0 -6295.6655)" gradientUnits="userSpaceOnUse">
				<stop  offset="0" style="stop-color:#2842A2;stop-opacity:0.5"/>
				<stop  offset="1" style="stop-color:#3049A5;stop-opacity:0"/>
			</radialGradient>
			<path id="XMLID_76_" style="fill:url(#XMLID_00000178902528849964808690000005471121578583257783_);" d="M422.7,386.4
				c6.4-3.7,6.4-9.7,0-13.4c-6.4-3.7-16.8-3.7-23.1,0c-6.4,3.7-6.4,9.7,0,13.4C405.9,390,416.3,390,422.7,386.4z"/>
			
				<radialGradient id="XMLID_00000011712089315709561920000001967118391885840800_" cx="390.4687" cy="-12438.2607" r="15.9374" gradientTransform="matrix(1 0 0 -0.5358 0 -6295.6655)" gradientUnits="userSpaceOnUse">
				<stop  offset="0" style="stop-color:#2842A2;stop-opacity:0.5"/>
				<stop  offset="1" style="stop-color:#3049A5;stop-opacity:0"/>
			</radialGradient>
			<path id="XMLID_75_" style="fill:url(#XMLID_00000011712089315709561920000001967118391885840800_);" d="M402,375.4
				c6.4-3.7,6.4-9.7,0-13.4c-6.4-3.7-16.8-3.7-23.1,0s-6.4,9.7,0,13.4C385.3,379.1,395.7,379.1,402,375.4z"/>
			
				<radialGradient id="XMLID_00000127029564963760575060000013296080467044880045_" cx="369.65" cy="-12417.7764" r="15.919" gradientTransform="matrix(1 0 0 -0.5358 0 -6295.6655)" gradientUnits="userSpaceOnUse">
				<stop  offset="0" style="stop-color:#2842A2;stop-opacity:0.5"/>
				<stop  offset="1" style="stop-color:#3049A5;stop-opacity:0"/>
			</radialGradient>
			<path id="XMLID_74_" style="fill:url(#XMLID_00000127029564963760575060000013296080467044880045_);" d="M381.2,364.4
				c6.4-3.7,6.4-9.7,0-13.4c-6.4-3.7-16.8-3.7-23.1,0c-6.4,3.7-6.4,9.7,0,13.4C364.4,368.1,374.8,368.1,381.2,364.4z"/>
			<g>
				<path id="XMLID_73_" class="st17" d="M377.2,360.9c4.1-2.4,4.1-6.2,0-8.6s-10.8-2.4-14.9,0s-4.1,6.2,0,8.6
					C366.4,363.2,373.1,363.2,377.2,360.9z"/>
				<path id="XMLID_72_" class="st15" d="M397.9,373c4.1-2.4,4.1-6.2,0-8.6s-10.8-2.4-14.9,0s-4.1,6.2,0,8.6S393.8,375.4,397.9,373z
					"/>
				<polygon id="XMLID_71_" class="st17" points="380,356.6 359.3,356.6 359.3,288.1 380.3,288.1 				"/>
				<polygon id="XMLID_70_" class="st15" points="400.6,368 380,368 380,316.2 401,316.2 				"/>
				<path id="XMLID_69_" class="st8" d="M377.2,292.3c4.1-2.4,4.1-6.2,0-8.6s-10.8-2.4-14.9,0s-4.1,6.2,0,8.6
					C366.4,294.7,373.1,294.7,377.2,292.3z"/>
				<path id="XMLID_68_" class="st16" d="M397.9,320.5c4.1-2.4,4.1-6.2,0-8.6s-10.8-2.4-14.9,0s-4.1,6.2,0,8.6
					S393.8,322.9,397.9,320.5z"/>
				<g>
					<path id="XMLID_67_" class="st1" d="M418.4,384c4-2.4,4-6.2,0-8.6s-10.7-2.4-14.7,0s-4,6.2,0,8.6
						C407.7,386.4,414.3,386.4,418.4,384z"/>
					<polygon id="XMLID_66_" class="st1" points="421.4,379.4 400.6,379.4 400.6,345.8 421.7,345.8 					"/>
					<path id="XMLID_65_" class="st18" d="M418.6,350.1c4.1-2.4,4.1-6.2,0-8.6s-10.8-2.4-14.9,0s-4.1,6.2,0,8.6
						C407.8,352.4,414.5,352.4,418.6,350.1z"/>
				</g>
			</g>
			<polygon id="XMLID_24_" class="st8" points="222.3,315.3 218.5,317.3 346.5,391.2 348.6,391.2 347.8,315.3 329.6,325.9 
				311.3,325.9 302.1,310 293,315.3 283.9,320.6 274.7,304.8 265.6,310 247.3,310 238.2,315.3 			"/>
			<polygon id="XMLID_23_" class="st8" points="218.5,317.3 346.5,391.2 346.5,317.3 328.2,327.9 309.9,327.9 300.8,312.1 
				291.7,317.3 282.5,322.6 273.4,306.8 264.2,312.1 246,312.1 236.8,317.3 			"/>
			<polygon class="st5" points="341.2,388.2 340.6,320.8 328.2,327.9 326.9,327.9 322.3,330.6 304,330.6 295.2,315.3 291.7,317.3 
				282.5,322.6 282.2,322 276.6,325.3 267.8,310 264.2,312.1 262.9,312.1 258.3,314.7 241.3,314.7 236.8,317.3 235.5,317.3 
				230.9,320 223.2,320 			"/>
			
				<linearGradient id="XMLID_00000057148119733258826100000011633537380466106262_" gradientUnits="userSpaceOnUse" x1="208.5" y1="-1940.7" x2="338.5" y2="-1940.7" gradientTransform="matrix(1 0 0 -1 0 -1588)">
				<stop  offset="0" style="stop-color:#4782D9"/>
				<stop  offset="0.2367" style="stop-color:#457DD5"/>
				<stop  offset="0.4998" style="stop-color:#3E70CA"/>
				<stop  offset="0.7745" style="stop-color:#345AB7"/>
				<stop  offset="1" style="stop-color:#2842A2"/>
			</linearGradient>
			<polygon id="XMLID_22_" style="fill:url(#XMLID_00000057148119733258826100000011633537380466106262_);" points="212.2,320 
				208.5,322 336.4,395.9 338.5,395.9 338.5,318.6 318.6,330.6 301.2,330.6 291.8,314 282.6,319.2 273.5,324.5 264.6,309.5 
				255.5,314.7 237.2,314.7 228.1,320 			"/>
			<polygon id="XMLID_21_" class="st18" points="208.5,322 336.4,395.9 336.4,322 318.1,332.6 299.9,332.6 290.7,316.8 281.6,322 
				272.4,327.3 263.3,311.5 254.2,316.8 235.9,316.8 226.7,322 			"/>
			<polygon id="XMLID_56_" class="st1" points="327.3,398.5 258.5,438 249.3,432.7 318.1,393.2 			"/>
			<polygon id="XMLID_55_" class="st1" points="309.3,387.7 263,414.1 253.9,408.8 300.2,382.4 			"/>
			<polygon id="XMLID_54_" class="st1" points="291.4,376.9 209.1,424.4 200,419.2 282.2,371.7 			"/>
			<polygon id="XMLID_53_" class="st1" points="273.4,366.2 204.6,405.6 195.5,400.3 264.3,360.9 			"/>
			<polygon id="XMLID_52_" class="st1" points="255.4,355.4 209.2,382.3 200.1,377.1 246.3,350.1 			"/>
			<polygon id="XMLID_51_" class="st1" points="237.5,344.6 155.2,392.1 146.1,386.8 228.3,339.3 			"/>
			<polygon id="XMLID_48_" class="st1" points="219.5,333.8 172.8,360.4 163.7,355.1 210.4,328.6 			"/>
			<g>
				
					<radialGradient id="XMLID_00000147209936976402566890000016291607244810932621_" cx="67.1312" cy="-13300.0195" r="29.8811" gradientTransform="matrix(1 0 0 -0.5172 0 -6484.6372)" gradientUnits="userSpaceOnUse">
					<stop  offset="0" style="stop-color:#2842A2;stop-opacity:0.5"/>
					<stop  offset="1" style="stop-color:#2842A2;stop-opacity:0"/>
				</radialGradient>
				<path id="XMLID_59_" style="fill:url(#XMLID_00000147209936976402566890000016291607244810932621_);" d="M46.2,381.6
					c11.5-6.7,30.4-6.7,41.9,0s11.5,17.5,0,24.2s-30.4,6.7-41.9,0S34.6,388.3,46.2,381.6z"/>
				<g>
					<path class="st1" d="M95.7,383.7c0-0.6-0.9-1.1-1.9-1.1h-4.1c-0.7,0-1.8,0.7-2,0.5c-0.3-0.4-0.2-0.8,0.3-1l2.9-1.7
						c0.7-0.4-4-0.2-4.7-0.7v-3.6c-0.7-0.4-2-0.4-2.7,0l-2.9,1.7c-0.5,0.3-1.1,0.3-1.7,0.2c-0.4-0.1-0.9-0.2-1.3-0.3
						c-0.6-0.1-1-0.5-1-0.8v-2.4c0-0.6-0.9-1.1-1.9-1.1H68c-1.1,0-1.9,0.5-1.9,1.1v2.4c0,0.4-0.4,0.7-1.1,0.9
						c-0.4,0.1-0.8,0.2-1.2,0.3c-0.6,0.2-1.3,0.1-1.8-0.2l-2.9-1.7c-0.7-0.4-2-0.4-2.7,0l-0.3,3.9c-0.7,0.4-5.1-0.1-4.3,0.4l2.9,1.7
						c0.5,0.3,0.6,0.7,0.3,1c-0.2,0.2-1.3-0.5-2-0.5h-4.1c-1.1,0-1.9,0.5-1.9,1.1v5.6c0,0.6,0.9,1.1,1.9,1.1h2.4l-0.1,4.6
						c0,0.1,0,0.2,0,0.2l0,0l0,0c0,0.2,0.2,0.5,0.5,0.7l4.7,2.7c0.5,0.3,1.1,0.3,1.7,0.3l0,0l0,0c0.4,0,0.7-0.1,1-0.3L62,397
						c0.5-0.3,1.1-0.3,1.7-0.2c0.4,0.1,0.9,0.2,1.3,0.3c0.6,0.1,1,0.5,1,0.8v2.4c0,0.6,0.9,1.1,1.9,1.1h6.7c1.1,0,1.9-0.5,1.9-1.1
						v-2.4c0-0.4,0.4-0.7,1.1-0.9c0.4-0.1,0.8-0.2,1.1-0.3c0.6-0.2,1.3-0.1,1.8,0.2l2.9,1.7c0.3,0.2,0.6,0.2,1,0.3l0,0h0.1
						c0.6,0.1,1.2,0,1.7-0.3l4.7-2.7c0.3-0.2,0.5-0.4,0.5-0.6l0,0v-0.1l0,0l-0.1-4.7h2.4c1.1,0,1.9-0.5,1.9-1.1L95.7,383.7z
						 M80.7,388.3c-1.1,3.4-7.2,5.3-12.7,4.1c-4.2-0.9-6.7-3.5-5.9-6c1.1-3.4,7.2-5.3,12.7-4.1C78.9,383.2,81.5,385.8,80.7,388.3z"
						/>
					<path class="st1" d="M91.5,377.3v-3h-4.3l-1-0.6c-0.7-0.4-2-0.4-2.7,0l-1,0.6h-5.9v-2.2c0-0.6-0.9-1.1-1.9-1.1H68
						c-1.1,0-1.9,0.5-1.9,1.1v2.2h-6l-0.9-0.5c-0.7-0.4-2-0.4-2.7,0l-0.9,0.5h-4.3v2.9c0,0.3,0.2,0.6,0.6,0.8l2.9,1.7h33.3L91,378
						C91.3,377.8,91.5,377.6,91.5,377.3L91.5,377.3z"/>
					<g id="XMLID_31_">
						<path id="XMLID_44_" class="st18" d="M88.6,385.1h5.2c1.1,0,1.9-0.5,1.9-1.1v-3.8c0-0.6-0.9-1.1-1.9-1.1h-4.1
							c-0.7,0-1.3-0.3-1.5-0.6c-0.1-0.2-0.3-0.4-0.5-0.6c-0.3-0.4-0.2-0.8,0.3-1l2.9-1.7c0.7-0.4,0.7-1.1,0-1.6l-4.7-2.7
							c-0.7-0.4-2-0.4-2.7,0l-2.9,1.7c-0.5,0.3-1.1,0.3-1.7,0.2c-0.4-0.1-0.9-0.2-1.2-0.3c-0.6-0.1-1-0.5-1-0.8v-2.4
							c0-0.6-0.9-1.1-1.9-1.1h-6.7c-1.1,0-1.9,0.5-1.9,1.1v2.4c0,0.4-0.4,0.7-1.1,0.9c-0.4,0.1-0.8,0.2-1.2,0.3
							c-0.6,0.2-1.3,0.1-1.8-0.2l-2.9-1.7c-0.7-0.4-2-0.4-2.7,0l-4.7,2.7c-0.7,0.4-0.7,1.1,0,1.6l2.9,1.7c0.5,0.3,0.6,0.7,0.3,1
							c-0.2,0.2-0.4,0.5-0.5,0.7c-0.2,0.3-0.8,0.6-1.5,0.6h-4.1c-1.1,0-1.9,0.5-1.9,1.1v3.8c0,0.6,0.9,1.1,1.9,1.1H53
							c0.7,0,1.3,0.3,1.5,0.6c0.1,0.2,0.3,0.4,0.5,0.6c0.3,0.4,0.2,0.8-0.3,1l-2.9,1.7c-0.7,0.4-0.7,1.1,0,1.6l4.7,2.7
							c0.7,0.4,2,0.4,2.7,0l2.9-1.7c0.5-0.3,1.1-0.3,1.7-0.2c0.4,0.1,0.9,0.2,1.2,0.3c0.6,0.1,1,0.5,1,0.8v2.4
							c0,0.6,0.9,1.1,1.9,1.1h6.7c1.1,0,1.9-0.5,1.9-1.1v-2.4c0-0.4,0.4-0.7,1.1-0.9c0.4-0.1,0.8-0.2,1.1-0.3
							c0.6-0.2,1.3-0.1,1.8,0.2l2.9,1.7c0.7,0.4,2,0.4,2.7,0l4.7-2.7c0.7-0.4,0.7-1.1,0-1.6l-2.9-1.7c-0.5-0.3-0.6-0.7-0.3-1
							C88.1,385.8,88.6,385.1,88.6,385.1z M62.1,381.1c1.1-3.4,7.2-5.3,12.7-4.1c4.2,0.9,6.7,3.5,5.9,6c-1.1,3.4-7.2,5.3-12.7,4.1
							C63.8,386.2,61.3,383.6,62.1,381.1z"/>
					</g>
				</g>
			</g>
			<g>
				
					<radialGradient id="XMLID_00000031908631009243922380000016143853237134329493_" cx="407.3835" cy="-13336.1729" r="17.9158" gradientTransform="matrix(1 0 0 -0.5172 0 -6484.6372)" gradientUnits="userSpaceOnUse">
					<stop  offset="0" style="stop-color:#2842A2;stop-opacity:0.5"/>
					<stop  offset="0.7318" style="stop-color:#3049A5;stop-opacity:0"/>
				</radialGradient>
				<path id="XMLID_77_" style="fill:url(#XMLID_00000031908631009243922380000016143853237134329493_);" d="M394.9,405.2
					c6.9-4,18.2-4,25.1,0s6.9,10.5,0,14.5s-18.2,4-25.1,0S388,409.2,394.9,405.2z"/>
				<g>
					<path class="st1" d="M424.6,406.4c0-0.4-0.5-0.7-1.1-0.7h-2.4c-0.4,0-1.1,0.4-1.2,0.3c-0.2-0.2-0.1-0.5,0.2-0.6l1.7-1
						c0.4-0.3-2.4-0.1-2.8-0.4v-2.2c-0.4-0.3-1.2-0.3-1.6,0l-1.7,1c-0.3,0.2-0.7,0.2-1,0.1c-0.2-0.1-0.5-0.1-0.7-0.2
						c-0.4-0.1-0.6-0.3-0.6-0.5v-1.4c0-0.4-0.5-0.7-1.1-0.7h-4c-0.6,0-1.1,0.3-1.1,0.7v1.4c0,0.2-0.3,0.4-0.6,0.5
						c-0.2,0.1-0.5,0.1-0.7,0.2c-0.4,0.1-0.8,0.1-1.1-0.1l-1.7-1c-0.4-0.3-1.2-0.3-1.6,0l-0.2,2.3c-0.4,0.3-3,0-2.6,0.2l1.7,1
						c0.3,0.2,0.4,0.4,0.2,0.6c-0.1,0.1-0.8-0.3-1.2-0.3h-2.5c-0.6,0-1.1,0.3-1.1,0.7v3.4c0,0.4,0.5,0.7,1.1,0.7h1.4v2.8v0.1l0,0
						l0,0c0,0.1,0.1,0.3,0.3,0.4l2.8,1.6c0.3,0.2,0.7,0.2,1,0.2l0,0l0,0c0.2,0,0.4-0.1,0.6-0.2l1.7-1c0.3-0.2,0.7-0.2,1-0.1
						c0.2,0.1,0.5,0.1,0.7,0.2c0.4,0.1,0.6,0.3,0.6,0.5v1.4c0,0.4,0.5,0.7,1.1,0.7h4c0.6,0,1.1-0.3,1.1-0.7v-1.4
						c0-0.2,0.3-0.4,0.6-0.5c0.2,0,0.5-0.1,0.7-0.2c0.4-0.1,0.8-0.1,1.1,0.1l1.7,1c0.2,0.1,0.4,0.1,0.6,0.2l0,0l0,0
						c0.4,0,0.7,0,1-0.2l2.8-1.6c0.2-0.1,0.3-0.2,0.3-0.4l0,0v-0.1l0,0v-2.8h1.4c0.6,0,1.1-0.3,1.1-0.7L424.6,406.4z M415.5,409.2
						c-0.7,2-4.3,3.2-7.6,2.4c-2.5-0.6-4-2.1-3.5-3.6c0.7-2,4.3-3.2,7.6-2.4C414.5,406.1,416,407.7,415.5,409.2z"/>
					<path class="st1" d="M422,402.6v-1.8h-2.6l-0.6-0.3c-0.4-0.3-1.2-0.3-1.6,0l-0.6,0.3H413v-1.3c0-0.4-0.5-0.7-1.1-0.7h-4
						c-0.6,0-1.1,0.3-1.1,0.7v1.3h-3.6l-0.6-0.3c-0.4-0.3-1.2-0.3-1.6,0l-0.5,0.3h-2.6v1.8c0,0.2,0.1,0.4,0.3,0.5l1.7,1h20l1.7-1
						C421.9,402.9,422,402.8,422,402.6L422,402.6z"/>
					<g id="XMLID_61_">
						<path id="XMLID_62_" class="st18" d="M420.3,407.3h3.1c0.6,0,1.1-0.3,1.1-0.7v-2.3c0-0.4-0.5-0.7-1.1-0.7H421
							c-0.4,0-0.8-0.2-0.9-0.4c-0.1-0.1-0.2-0.3-0.3-0.4c-0.2-0.2-0.1-0.5,0.2-0.6l1.7-1c0.4-0.3,0.4-0.7,0-0.9l-2.8-1.6
							c-0.4-0.3-1.2-0.3-1.6,0l-1.7,1c-0.3,0.2-0.7,0.2-1,0.1c-0.2-0.1-0.5-0.1-0.7-0.2c-0.4-0.1-0.6-0.3-0.6-0.5v-1.4
							c0-0.4-0.5-0.7-1.1-0.7h-4c-0.6,0-1.1,0.3-1.1,0.7v1.4c0,0.2-0.3,0.4-0.6,0.5c-0.2,0.1-0.5,0.1-0.7,0.2
							c-0.4,0.1-0.8,0.1-1.1-0.1l-1.7-1c-0.4-0.3-1.2-0.3-1.6,0l-2.8,1.6c-0.4,0.3-0.4,0.7,0,0.9l1.7,1c0.3,0.2,0.4,0.4,0.2,0.6
							c-0.1,0.1-0.2,0.3-0.3,0.4c-0.1,0.2-0.5,0.3-0.9,0.3h-2.5c-0.6,0-1.1,0.3-1.1,0.7v2.3c0,0.4,0.5,0.7,1.1,0.7h2.4
							c0.4,0,0.8,0.1,0.9,0.4c0.1,0.1,0.2,0.3,0.3,0.4c0.2,0.2,0.1,0.5-0.2,0.6l-1.7,1c-0.4,0.3-0.4,0.7,0,0.9l2.8,1.6
							c0.4,0.3,1.2,0.3,1.6,0l1.7-1c0.3-0.2,0.7-0.2,1-0.1c0.2,0.1,0.5,0.1,0.7,0.2c0.4,0.1,0.6,0.3,0.6,0.5v1.4
							c0,0.4,0.5,0.7,1.1,0.7h4c0.6,0,1.1-0.3,1.1-0.7v-1.4c0-0.2,0.3-0.4,0.6-0.5c0.2,0,0.5-0.1,0.7-0.2c0.4-0.1,0.8-0.1,1.1,0.1
							l1.7,1c0.4,0.3,1.2,0.3,1.6,0l2.8-1.6c0.4-0.3,0.4-0.7,0-0.9l-1.7-1c-0.3-0.2-0.4-0.4-0.2-0.6
							C420,407.7,420.3,407.3,420.3,407.3z M404.4,404.9c0.7-2,4.3-3.2,7.6-2.4c2.5,0.6,4,2.1,3.5,3.6c-0.7,2-4.3,3.2-7.6,2.4
							C405.4,407.9,403.9,406.4,404.4,404.9z"/>
					</g>
				</g>
			</g>
			<g>
				
					<radialGradient id="XMLID_00000121252560210215826180000006296226073837189799_" cx="359.3" cy="-13342.8105" r="23.9195" gradientTransform="matrix(1 0 0 -0.5172 0 -6484.6372)" gradientUnits="userSpaceOnUse">
					<stop  offset="0" style="stop-color:#2842A2;stop-opacity:0.5"/>
					<stop  offset="0.6592" style="stop-color:#3049A5;stop-opacity:0"/>
				</radialGradient>
				
					<ellipse id="XMLID_60_" style="fill:url(#XMLID_00000121252560210215826180000006296226073837189799_);" cx="359.3" cy="415.9" rx="23.7" ry="13.7"/>
				<g>
					<path class="st17" d="M382.2,407.8c0-0.5-0.7-0.9-1.5-0.9h-3.3c-0.5,0-1.4,0.6-1.6,0.4c-0.2-0.3-0.1-0.6,0.2-0.8l2.3-1.3
						c0.6-0.3-3.2-0.2-3.8-0.5v-2.9c-0.6-0.3-1.6-0.3-2.2,0l-2.3,1.3c-0.4,0.2-0.9,0.3-1.4,0.2c-0.3-0.1-0.7-0.2-1-0.2
						c-0.5-0.1-0.8-0.4-0.8-0.7v-1.9c0-0.5-0.7-0.9-1.5-0.9H360c-0.8,0-1.5,0.4-1.5,0.9v1.9c0,0.3-0.3,0.6-0.9,0.7
						c-0.3,0.1-0.6,0.1-0.9,0.2c-0.5,0.1-1.1,0.1-1.5-0.1l-2.3-1.3c-0.6-0.3-1.6-0.3-2.2,0l-0.3,3.1c-0.6,0.3-4.1-0.1-3.5,0.3
						l2.3,1.3c0.4,0.2,0.5,0.5,0.3,0.8c-0.1,0.2-1.1-0.4-1.6-0.4h-3.3c-0.8,0-1.5,0.4-1.5,0.9v4.5c0,0.5,0.7,0.9,1.5,0.9h1.9v3.7
						c0,0.1,0,0.1,0,0.2l0,0l0,0c0,0.2,0.2,0.4,0.4,0.5l3.8,2.2c0.4,0.2,0.9,0.3,1.3,0.2l0,0l0,0c0.3,0,0.6-0.1,0.8-0.2l2.3-1.3
						c0.4-0.2,0.9-0.3,1.4-0.2c0.3,0.1,0.7,0.2,1,0.2c0.5,0.1,0.8,0.4,0.8,0.7v1.9c0,0.5,0.7,0.9,1.5,0.9h5.3c0.8,0,1.5-0.4,1.5-0.9
						v-1.9c0-0.3,0.3-0.6,0.9-0.7c0.3-0.1,0.6-0.1,0.9-0.2c0.5-0.1,1.1-0.1,1.5,0.1l2.3,1.3c0.2,0.1,0.5,0.2,0.8,0.2l0,0l0,0
						c0.5,0,1,0,1.3-0.2l3.8-2.2c0.2-0.1,0.4-0.3,0.4-0.5l0,0V417l0,0v-3.8h1.9c0.8,0,1.5-0.4,1.5-0.9L382.2,407.8z M370.1,411.6
						c-0.9,2.7-5.8,4.2-10.2,3.3c-3.3-0.7-5.4-2.8-4.7-4.8c0.9-2.7,5.8-4.2,10.2-3.3C368.8,407.5,370.8,409.5,370.1,411.6z"/>
					<path class="st17" d="M378.8,402.7v-2.4h-3.4l-0.8-0.4c-0.6-0.3-1.6-0.3-2.2,0l-0.8,0.4h-4.8v-1.8c0-0.5-0.7-0.9-1.5-0.9H360
						c-0.8,0-1.5,0.4-1.5,0.9v1.8h-4.8l-0.7-0.4c-0.6-0.3-1.6-0.3-2.2,0l-0.7,0.4h-3.5v2.4c0,0.2,0.1,0.5,0.4,0.6l2.3,1.3H376
						l2.3-1.3C378.6,403.1,378.8,402.9,378.8,402.7L378.8,402.7z"/>
					<g id="XMLID_49_">
						<path id="XMLID_50_" class="st8" d="M376.5,408.9h4.2c0.8,0,1.5-0.4,1.5-0.9v-3.1c0-0.5-0.7-0.9-1.5-0.9h-3.3
							c-0.5,0-1-0.2-1.2-0.5c-0.1-0.2-0.2-0.3-0.4-0.5c-0.2-0.3-0.1-0.6,0.2-0.8l2.3-1.3c0.6-0.3,0.6-0.9,0-1.2l-3.8-2.2
							c-0.6-0.3-1.6-0.3-2.2,0l-2.3,1.3c-0.4,0.2-0.9,0.3-1.4,0.2c-0.3-0.1-0.7-0.2-1-0.2c-0.5-0.1-0.8-0.4-0.8-0.7v-1.9
							c0-0.5-0.7-0.9-1.5-0.9H360c-0.8,0-1.5,0.4-1.5,0.9v1.9c0,0.3-0.3,0.6-0.9,0.7c-0.3,0.1-0.6,0.1-0.9,0.2
							c-0.5,0.1-1.1,0.1-1.5-0.1l-2.3-1.3c-0.6-0.3-1.6-0.3-2.2,0l-3.8,2.2c-0.6,0.3-0.6,0.9,0,1.2l2.3,1.3c0.4,0.2,0.5,0.5,0.3,0.8
							c-0.1,0.2-0.3,0.4-0.4,0.6c-0.2,0.3-0.7,0.5-1.2,0.5h-3.3c-0.8,0-1.5,0.4-1.5,0.9v3.1c0,0.5,0.7,0.9,1.5,0.9h3.3
							c0.5,0,1,0.2,1.2,0.5c0.1,0.2,0.2,0.3,0.4,0.5c0.2,0.3,0.1,0.6-0.2,0.8l-2.3,1.3c-0.6,0.3-0.6,0.9,0,1.2l3.8,2.2
							c0.6,0.3,1.6,0.3,2.2,0l2.3-1.3c0.4-0.2,0.9-0.3,1.4-0.2c0.3,0.1,0.7,0.2,1,0.2c0.5,0.1,0.8,0.4,0.8,0.7v1.9
							c0,0.5,0.7,0.9,1.5,0.9h5.3c0.8,0,1.5-0.4,1.5-0.9V415c0-0.3,0.3-0.6,0.9-0.7c0.3-0.1,0.6-0.1,0.9-0.2
							c0.5-0.1,1.1-0.1,1.5,0.1l2.3,1.3c0.6,0.3,1.6,0.3,2.2,0l3.8-2.2c0.6-0.3,0.6-0.9,0-1.2l-2.3-1.3c-0.4-0.2-0.5-0.5-0.3-0.8
							C376.1,409.5,376.5,409,376.5,408.9z M355.3,405.8c0.9-2.7,5.8-4.2,10.2-3.3c3.3,0.7,5.4,2.8,4.7,4.8
							c-0.9,2.7-5.8,4.2-10.2,3.3C356.7,409.9,354.6,407.8,355.3,405.8z"/>
					</g>
				</g>
			</g>
			<g>
				<path class="st1" d="M251.4,411.7c0.3-0.1,0.6-0.2,0.8-0.4c0.2-0.2,0.3-0.3,0.4-0.5c0.1-0.2,0-0.3-0.1-0.4
					c-0.2-0.2-0.8-0.1-1.5,0.2v-1c0.6-0.2,1.2-0.3,1.6-0.4c0.4,0,0.8,0.1,1.2,0.3c0.3,0.2,0.5,0.5,0.4,1c-0.1,0.4-0.4,0.9-1,1.3
					c-0.3,0.2-0.7,0.4-1.1,0.6c-0.4,0.2-1,0.3-1.7,0.5l-1.9,0.4l1.5,1l-1.2,0.9l-2.8-1.8l1-0.8l3-0.7
					C250.6,411.9,251.1,411.8,251.4,411.7z"/>
				<path class="st1" d="M258,412.6l-1.2,0.9l-1.5-1l-1,0.8c0.2,0,0.3,0.1,0.5,0.2c0.4,0.2,0.5,0.6,0.4,1c-0.1,0.5-0.4,0.9-1,1.4
					s-1.3,0.8-1.9,0.9c-0.7,0.1-1.2,0-1.6-0.2c-0.5-0.3-0.7-0.9-0.4-1.6l1.5-0.5c0,0.1,0,0.1-0.1,0.2c0,0.1,0,0.2,0,0.4
					c0,0.2,0.1,0.3,0.3,0.4c0.1,0.1,0.4,0.1,0.6,0.1c0.3,0,0.5-0.2,0.8-0.4c0.3-0.2,0.4-0.4,0.5-0.6c0-0.2-0.1-0.4-0.3-0.5
					s-0.5-0.2-1-0.2l0.3-0.7l3-2.3L258,412.6z"/>
				<path class="st1" d="M262.7,415.7l-9,2.9l-1-0.6l9-2.9L262.7,415.7z M257.8,419.5c-0.3,0.3-0.7,0.4-1.1,0.5s-0.7,0-0.9-0.1
					c-0.2-0.2-0.3-0.4-0.2-0.7c0.1-0.3,0.3-0.6,0.6-0.8c0.3-0.3,0.7-0.4,1.1-0.5s0.7,0,1,0.1c0.2,0.2,0.3,0.4,0.2,0.7
					C258.3,419,258.1,419.3,257.8,419.5z M256.4,419.1c0,0.1,0,0.2,0,0.2c0.1,0,0.2,0.1,0.3,0c0.1,0,0.3-0.1,0.4-0.2
					s0.2-0.2,0.3-0.3c0-0.1,0-0.2,0-0.2c-0.1,0-0.2,0-0.3,0s-0.3,0.1-0.4,0.2C256.6,418.9,256.5,419,256.4,419.1z M259.2,415.3
					c-0.3,0.3-0.7,0.4-1.1,0.5s-0.7,0-0.9-0.1c-0.2-0.2-0.3-0.4-0.2-0.7c0.1-0.3,0.3-0.6,0.6-0.8c0.3-0.3,0.7-0.4,1.1-0.5
					s0.7,0,1,0.1c0.2,0.2,0.3,0.4,0.2,0.7C259.7,414.8,259.5,415,259.2,415.3z M257.8,414.9c0,0.1,0,0.2,0,0.2c0.1,0,0.2,0,0.3,0
					s0.2-0.1,0.4-0.2c0.1-0.1,0.2-0.2,0.3-0.3s0-0.2,0-0.2c-0.1,0-0.2,0-0.3,0s-0.3,0.1-0.4,0.2S257.9,414.8,257.8,414.9z"/>
			</g>
			<g>
				<path class="st1" d="M249.4,435.1l-1.2,0.9l-1.5-1l-1,0.8c0.2,0,0.3,0.1,0.5,0.2c0.4,0.2,0.5,0.6,0.4,1c-0.1,0.5-0.4,0.9-1,1.4
					s-1.3,0.8-1.9,0.9c-0.7,0.1-1.2,0-1.6-0.2c-0.5-0.3-0.7-0.9-0.4-1.6l1.5-0.5c0,0.1,0,0.1-0.1,0.2c0,0.1,0,0.2,0,0.4
					c0,0.2,0.1,0.3,0.3,0.4c0.1,0.1,0.4,0.1,0.6,0.1c0.3,0,0.5-0.2,0.8-0.4c0.3-0.2,0.4-0.4,0.5-0.6c0-0.2-0.1-0.4-0.3-0.5
					s-0.5-0.2-1-0.2l0.3-0.7l3-2.3L249.4,435.1z"/>
				<path class="st1" d="M249.5,438.6c0.3-0.1,0.6-0.2,0.8-0.4c0.2-0.2,0.3-0.3,0.4-0.5c0.1-0.2,0-0.3-0.1-0.4
					c-0.2-0.2-0.8-0.1-1.5,0.2v-1c0.6-0.2,1.2-0.4,1.6-0.4c0.4,0,0.8,0.1,1.2,0.3c0.3,0.2,0.5,0.5,0.4,1c-0.1,0.4-0.4,0.9-1,1.3
					c-0.3,0.2-0.7,0.4-1.1,0.6c-0.4,0.2-1,0.3-1.7,0.5l-1.9,0.4l1.5,1l-1.2,0.9l-2.8-1.8l1-0.8l3-0.7
					C248.7,438.8,249.2,438.7,249.5,438.6z"/>
				<path class="st1" d="M257.5,440.4l-9,2.9l-1-0.6l9-2.9L257.5,440.4z M252.5,444.3c-0.3,0.3-0.7,0.4-1.1,0.5
					c-0.4,0.1-0.7,0-0.9-0.1c-0.2-0.2-0.3-0.4-0.2-0.7c0.1-0.3,0.3-0.6,0.6-0.8c0.3-0.3,0.7-0.4,1.1-0.5c0.4-0.1,0.7,0,1,0.1
					c0.2,0.2,0.3,0.4,0.2,0.7C253.1,443.7,252.9,444,252.5,444.3z M251.2,443.9c0,0.1,0,0.2,0,0.2c0.1,0,0.2,0.1,0.3,0
					c0.1,0,0.2-0.1,0.4-0.2c0.1-0.1,0.2-0.2,0.3-0.3c0-0.1,0-0.2,0-0.2c-0.1,0-0.2,0-0.3,0s-0.3,0.1-0.4,0.2
					C251.3,443.7,251.3,443.8,251.2,443.9z M253.9,440.1c-0.3,0.3-0.7,0.4-1.1,0.5c-0.4,0.1-0.7,0-0.9-0.1c-0.2-0.2-0.3-0.4-0.2-0.7
					c0.1-0.3,0.3-0.6,0.6-0.8c0.3-0.3,0.7-0.4,1.1-0.5c0.4-0.1,0.7,0,1,0.1c0.2,0.2,0.3,0.4,0.2,0.7
					C254.5,439.5,254.3,439.8,253.9,440.1z M252.6,439.7c0,0.1,0,0.2,0,0.2c0.1,0,0.2,0.1,0.3,0c0.1,0,0.2-0.1,0.4-0.2
					c0.1-0.1,0.2-0.2,0.3-0.3c0-0.1,0-0.2,0-0.2c-0.1,0-0.2,0-0.3,0s-0.3,0.1-0.4,0.2C252.7,439.5,252.7,439.6,252.6,439.7z"/>
			</g>
			<g>
				<path class="st1" d="M197.1,421.4l2-1.5l2.8,1.8l-1,0.8l-6.7,2.9l-1-0.6l6.5-2.8l-1-0.6l-0.8,0.6L197.1,421.4z"/>
				<path class="st1" d="M204.9,423.7l-1.2,0.9l-1.5-1l-1,0.8c0.2,0,0.3,0.1,0.5,0.2c0.4,0.2,0.5,0.6,0.4,1c-0.1,0.5-0.4,0.9-1,1.4
					s-1.3,0.8-1.9,0.9c-0.7,0.1-1.2,0-1.6-0.2c-0.5-0.3-0.7-0.9-0.4-1.6l1.5-0.5c0,0.1,0,0.1-0.1,0.2c0,0.1,0,0.2,0,0.4
					c0,0.2,0.1,0.3,0.3,0.4c0.1,0.1,0.4,0.1,0.6,0.1c0.3,0,0.5-0.2,0.8-0.4c0.3-0.2,0.4-0.4,0.5-0.6c0-0.2-0.1-0.4-0.3-0.5
					s-0.5-0.2-1-0.2l0.3-0.7l3-2.3L204.9,423.7z"/>
				<path class="st1" d="M209.5,426.7l-9,2.9l-1-0.6l9-2.9L209.5,426.7z M204.6,430.6c-0.3,0.3-0.7,0.4-1.1,0.5
					c-0.4,0.1-0.7,0-0.9-0.1c-0.2-0.2-0.3-0.4-0.2-0.7c0.1-0.3,0.3-0.6,0.6-0.8s0.7-0.4,1.1-0.5c0.4-0.1,0.7,0,1,0.1
					c0.2,0.2,0.3,0.4,0.2,0.7C205.1,430.1,204.9,430.3,204.6,430.6z M203.3,430.2c0,0.1,0,0.2,0,0.2c0.1,0,0.2,0.1,0.3,0
					c0.1,0,0.3-0.1,0.4-0.2c0.1-0.1,0.2-0.2,0.3-0.3c0-0.1,0-0.2,0-0.2c-0.1,0-0.2,0-0.3,0s-0.3,0.1-0.4,0.2
					C203.4,430,203.3,430.1,203.3,430.2z M206,426.4c-0.3,0.3-0.7,0.4-1.1,0.5c-0.4,0.1-0.7,0-0.9-0.1c-0.2-0.2-0.3-0.4-0.2-0.7
					c0.1-0.3,0.3-0.6,0.6-0.8c0.3-0.3,0.7-0.4,1.1-0.5c0.4-0.1,0.7,0,1,0.1c0.2,0.2,0.3,0.4,0.2,0.7S206.3,426.1,206,426.4z
					 M204.7,426c0,0.1,0,0.2,0,0.2c0.1,0,0.2,0.1,0.3,0c0.1,0,0.3-0.1,0.4-0.2c0.1-0.1,0.2-0.2,0.3-0.3c0-0.1,0-0.2,0-0.2
					c-0.1,0-0.2,0-0.3,0s-0.3,0.1-0.4,0.2C204.8,425.8,204.7,425.9,204.7,426z"/>
			</g>
			<g>
				<path class="st1" d="M194.8,402.9c-0.2-0.2-0.6-0.2-0.9-0.1c-0.4,0.1-0.8,0.3-1.3,0.6c0.5,0,0.9,0,1.1,0.2
					c0.4,0.2,0.5,0.6,0.4,1s-0.5,0.9-1.1,1.4s-1.3,0.8-1.9,0.9c-0.6,0.1-1.2,0-1.6-0.2c-0.3-0.2-0.4-0.4-0.5-0.7
					c0-0.3,0-0.5,0.2-0.8c0.4-0.6,1-1.2,1.8-1.9c0.6-0.4,1.1-0.8,1.6-1.1c0.5-0.3,1-0.4,1.4-0.5c0.8-0.2,1.4-0.1,1.8,0.2
					c0.2,0.1,0.3,0.3,0.4,0.4c0.1,0.2,0.1,0.3,0.1,0.5c0,0.1,0,0.3,0,0.5l-1.4,0.5c0,0,0-0.1,0-0.2s0-0.2,0-0.3
					C195,403.1,195,403,194.8,402.9z M192.5,404.6c-0.2-0.1-0.4-0.1-0.7-0.1s-0.5,0.2-0.8,0.4c-0.3,0.2-0.4,0.4-0.5,0.6
					s0,0.4,0.1,0.5c0.2,0.1,0.4,0.1,0.7,0.1c0.3-0.1,0.5-0.2,0.8-0.4c0.3-0.2,0.4-0.4,0.5-0.6C192.7,404.8,192.7,404.7,192.5,404.6z
					"/>
				<path class="st1" d="M195.7,404.8l2-1.5l2.8,1.9l-1,0.8l-6.7,2.9l-1-0.6l6.5-2.8l-1-0.6l-0.8,0.6L195.7,404.8z"/>
				<path class="st1" d="M204.8,408l-9,2.9l-1-0.6l9-2.9L204.8,408z M199.9,411.9c-0.3,0.3-0.7,0.4-1.1,0.5c-0.4,0.1-0.7,0-0.9-0.1
					c-0.2-0.2-0.3-0.4-0.2-0.7c0.1-0.3,0.3-0.6,0.6-0.8c0.3-0.3,0.7-0.4,1.1-0.5c0.4-0.1,0.7,0,1,0.1c0.2,0.2,0.3,0.4,0.2,0.7
					C200.4,411.3,200.2,411.6,199.9,411.9z M198.6,411.5c0,0.1,0,0.2,0,0.2c0.1,0,0.2,0.1,0.3,0c0.1,0,0.3-0.1,0.4-0.2
					c0.1-0.1,0.2-0.2,0.3-0.3c0-0.1,0-0.2,0-0.2c-0.1,0-0.2,0-0.3,0s-0.3,0.1-0.4,0.2C198.7,411.3,198.6,411.4,198.6,411.5z
					 M201.3,407.7c-0.3,0.3-0.7,0.4-1.1,0.5c-0.4,0.1-0.7,0-0.9-0.1c-0.2-0.2-0.3-0.4-0.2-0.7c0.1-0.3,0.3-0.6,0.6-0.8
					c0.3-0.3,0.7-0.4,1.1-0.5c0.4-0.1,0.7,0,1,0.1c0.2,0.2,0.3,0.4,0.2,0.7C201.8,407.1,201.6,407.4,201.3,407.7z M200,407.2
					c0,0.1,0,0.2,0,0.2c0.1,0,0.2,0,0.3,0s0.2-0.1,0.4-0.2c0.1-0.1,0.2-0.2,0.3-0.3c0-0.1,0-0.2,0-0.2c-0.1,0-0.2,0-0.3,0
					s-0.3,0.1-0.4,0.2C200.1,407.1,200,407.2,200,407.2z"/>
			</g>
			<g>
				<path class="st1" d="M199,377.7l1.6,1l-6.2,4.7l-0.8-0.5l5-3.8l-0.7-0.5L199,377.7z"/>
				<path class="st1" d="M197.5,384c0.2,0.2,0.6,0.2,0.9,0.1c0.4-0.1,0.8-0.3,1.3-0.6c-0.5,0-0.9,0-1.2-0.2c-0.4-0.2-0.5-0.6-0.3-1
					c0.1-0.5,0.5-0.9,1.1-1.4s1.3-0.8,1.9-0.9c0.6-0.1,1.2,0,1.6,0.2c0.3,0.2,0.4,0.4,0.5,0.7c0,0.3,0,0.5-0.2,0.9
					c-0.4,0.6-1,1.2-1.9,1.9c-0.6,0.4-1.1,0.8-1.6,1.1c-0.5,0.3-1,0.4-1.4,0.5c-0.8,0.2-1.4,0.1-1.9-0.2c-0.2-0.1-0.3-0.3-0.4-0.4
					c-0.1-0.2-0.1-0.3-0.1-0.4s0-0.3,0-0.4l1.4-0.5c0,0,0,0.1,0,0.2s0,0.2,0,0.3C197.4,383.8,197.4,383.9,197.5,384z M199.9,382.3
					c0.2,0.1,0.4,0.1,0.7,0.1s0.5-0.2,0.8-0.4c0.3-0.2,0.4-0.4,0.5-0.6s0-0.4-0.1-0.5c-0.2-0.1-0.4-0.1-0.7-0.1
					c-0.3,0.1-0.5,0.2-0.8,0.4c-0.3,0.2-0.4,0.4-0.5,0.6C199.7,382.1,199.7,382.2,199.9,382.3z"/>
				<path class="st1" d="M208.7,384.1l-9,2.9l-1-0.6l9-2.9L208.7,384.1z M203.8,388c-0.3,0.3-0.7,0.4-1.1,0.5
					c-0.4,0.1-0.7,0-0.9-0.1c-0.2-0.2-0.3-0.4-0.2-0.7c0.1-0.3,0.3-0.6,0.6-0.8c0.3-0.3,0.7-0.4,1.1-0.5c0.4-0.1,0.7,0,1,0.1
					c0.2,0.2,0.3,0.4,0.2,0.7C204.3,387.4,204.1,387.7,203.8,388z M202.5,387.6c0,0.1,0,0.2,0,0.2c0.1,0,0.2,0.1,0.3,0
					c0.1,0,0.3-0.1,0.4-0.2c0.1-0.1,0.2-0.2,0.3-0.3c0-0.1,0-0.2,0-0.2c-0.1,0-0.2,0-0.3,0s-0.3,0.1-0.4,0.2
					C202.6,387.4,202.5,387.5,202.5,387.6z M205.2,383.8c-0.3,0.3-0.7,0.4-1.1,0.5c-0.4,0.1-0.7,0-0.9-0.1c-0.2-0.2-0.3-0.4-0.2-0.7
					c0.1-0.3,0.3-0.6,0.6-0.8c0.3-0.3,0.7-0.4,1.1-0.5s0.7,0,1,0.1c0.2,0.2,0.3,0.4,0.2,0.7C205.7,383.2,205.5,383.5,205.2,383.8z
					 M203.9,383.4c0,0.1,0,0.2,0,0.2c0.1,0,0.2,0.1,0.3,0c0.1,0,0.2-0.1,0.4-0.2c0.1-0.1,0.2-0.2,0.3-0.3c0-0.1,0-0.2,0-0.2
					c-0.1,0-0.2,0-0.3,0s-0.3,0.1-0.4,0.2C204,383.2,203.9,383.3,203.9,383.4z"/>
			</g>
			<g>
				<path class="st1" d="M142.3,388.2l2-1.5l2.8,1.8l-1,0.8l-6.7,2.9l-1-0.6l6.5-2.8l-1-0.6l-0.8,0.6L142.3,388.2z"/>
				<path class="st1" d="M146.8,391.7c0.3-0.1,0.6-0.2,0.8-0.4c0.2-0.2,0.3-0.3,0.4-0.5c0.1-0.2,0-0.3-0.1-0.4
					c-0.2-0.2-0.8-0.1-1.5,0.2v-1c0.6-0.2,1.2-0.4,1.6-0.4c0.4,0,0.8,0.1,1.2,0.3c0.3,0.2,0.5,0.5,0.4,1c-0.1,0.4-0.4,0.9-1,1.3
					c-0.3,0.2-0.7,0.4-1.1,0.6c-0.4,0.2-1,0.3-1.7,0.5l-1.9,0.4l1.5,1l-1.2,0.9l-2.8-1.8l1-0.8l3-0.7
					C146.1,392,146.5,391.8,146.8,391.7z"/>
				<path class="st1" d="M154.8,393.5l-9,2.9l-1-0.6l9-2.9L154.8,393.5z M149.9,397.4c-0.3,0.3-0.7,0.4-1.1,0.5
					c-0.4,0.1-0.7,0-0.9-0.1c-0.2-0.2-0.3-0.4-0.2-0.7c0.1-0.3,0.3-0.6,0.6-0.8c0.3-0.3,0.7-0.4,1.1-0.5c0.4-0.1,0.7,0,1,0.1
					c0.2,0.2,0.3,0.4,0.2,0.7C150.4,396.9,150.2,397.1,149.9,397.4z M148.6,397c0,0.1,0,0.2,0,0.2c0.1,0,0.2,0.1,0.3,0
					c0.1,0,0.3-0.1,0.4-0.2c0.1-0.1,0.2-0.2,0.3-0.3c0-0.1,0-0.2,0-0.2c-0.1,0-0.2,0-0.3,0s-0.3,0.1-0.4,0.2
					C148.7,396.8,148.6,396.9,148.6,397z M151.3,393.2c-0.3,0.3-0.7,0.4-1.1,0.5c-0.4,0.1-0.7,0-0.9-0.1c-0.2-0.2-0.3-0.4-0.2-0.7
					c0.1-0.3,0.3-0.6,0.6-0.8c0.3-0.3,0.7-0.4,1.1-0.5c0.4-0.1,0.7,0,1,0.1c0.2,0.2,0.3,0.4,0.2,0.7
					C151.8,392.7,151.6,392.9,151.3,393.2z M150,392.8c0,0.1,0,0.2,0,0.2c0.1,0,0.2,0.1,0.3,0c0.1,0,0.3-0.1,0.4-0.2
					c0.1-0.1,0.2-0.2,0.3-0.3s0-0.2,0-0.2c-0.1,0-0.2,0-0.3,0s-0.3,0.1-0.4,0.2C150.1,392.6,150,392.7,150,392.8z"/>
			</g>
			<g>
				<path class="st1" d="M161.2,357.5c0.3-0.1,0.6-0.2,0.8-0.4c0.2-0.2,0.3-0.3,0.4-0.5c0.1-0.2,0-0.3-0.1-0.4
					c-0.2-0.2-0.8-0.1-1.5,0.2v-1c0.6-0.2,1.2-0.4,1.6-0.4c0.4,0,0.8,0.1,1.2,0.3c0.3,0.2,0.5,0.5,0.4,1c-0.1,0.4-0.4,0.9-1,1.3
					c-0.3,0.2-0.7,0.4-1.1,0.6c-0.4,0.2-1,0.3-1.7,0.5l-1.9,0.4l1.5,1l-1.2,0.9l-2.8-1.8l1-0.8l3-0.7
					C160.4,357.7,160.9,357.6,161.2,357.5z"/>
				<path class="st1" d="M165.2,356.7l1.6,1l-6.2,4.7l-0.8-0.5l5-3.8l-0.7-0.5L165.2,356.7z"/>
				<path class="st1" d="M171.4,360.8l-9,2.9l-1-0.6l9-2.9L171.4,360.8z M166.5,364.6c-0.3,0.3-0.7,0.4-1.1,0.5
					c-0.4,0.1-0.7,0-0.9-0.1c-0.2-0.2-0.3-0.4-0.2-0.7c0.1-0.3,0.3-0.6,0.6-0.8c0.3-0.3,0.7-0.4,1.1-0.5c0.4-0.1,0.7,0,1,0.1
					c0.2,0.2,0.3,0.4,0.2,0.7C167.1,364.1,166.8,364.4,166.5,364.6z M165.2,364.2c0,0.1,0,0.2,0,0.2c0.1,0,0.2,0.1,0.3,0
					c0.1,0,0.3-0.1,0.4-0.2c0.1-0.1,0.2-0.2,0.3-0.3c0-0.1,0-0.2,0-0.2c-0.1,0-0.2,0-0.3,0s-0.3,0.1-0.4,0.2
					C165.3,364,165.2,364.1,165.2,364.2z M167.9,360.4c-0.3,0.3-0.7,0.4-1.1,0.5c-0.4,0.1-0.7,0-0.9-0.1c-0.2-0.2-0.3-0.4-0.2-0.7
					c0.1-0.3,0.3-0.6,0.6-0.8c0.3-0.3,0.7-0.4,1.1-0.5c0.4-0.1,0.7,0,1,0.1c0.2,0.2,0.3,0.4,0.2,0.7
					C168.5,359.9,168.2,360.2,167.9,360.4z M166.6,360c0,0.1,0,0.2,0,0.2c0.1,0,0.2,0,0.3,0s0.3-0.1,0.4-0.2
					c0.1-0.1,0.2-0.2,0.3-0.3s0-0.2,0-0.2c-0.1,0-0.2,0-0.3,0s-0.3,0.1-0.4,0.2C166.7,359.8,166.6,359.9,166.6,360z"/>
			</g>
			<g>
				<path class="st1" d="M183.3,120.9l-0.1-2.1l2.9-1.7l0.1,1.1l-1.2,6.3l-1,0.6l1.2-6.1l-1,0.6l0.1,0.8L183.3,120.9z"/>
				<path class="st1" d="M188.3,119.7l-0.1-1.1l0.9-0.5l0.1,1.1l0.5-0.3l0.1,1.2l-0.5,0.3l0.1,1.5l-0.9,0.5l-0.1-1.5l-1.6,0.9
					l-0.1-1.1l1.1-4.6l1-0.6l-1.1,4.4L188.3,119.7z"/>
				<path class="st1" d="M191.7,115.4c0,0.4,0,0.7-0.2,1.1c-0.1,0.3-0.3,0.6-0.6,0.7c-0.2,0.1-0.5,0.1-0.6,0
					c-0.2-0.2-0.3-0.4-0.3-0.8s0-0.7,0.2-1.1c0.1-0.3,0.3-0.6,0.6-0.7c0.2-0.1,0.5-0.1,0.6,0C191.6,114.8,191.7,115.1,191.7,115.4z
					 M193.8,112.7l-2.4,8.1l-1,0.6l2.4-8.1L193.8,112.7z M190.8,116.3c0.1,0.1,0.1,0.1,0.2,0c0.1,0,0.1-0.1,0.2-0.2
					c0-0.1,0.1-0.2,0-0.4c0-0.1,0-0.2-0.1-0.3c-0.1-0.1-0.1-0.1-0.2,0c-0.1,0-0.1,0.1-0.2,0.2c0,0.1-0.1,0.2,0,0.4
					C190.7,116.2,190.7,116.3,190.8,116.3z M194.3,117.9c0,0.4,0,0.7-0.2,1.1c-0.1,0.3-0.3,0.6-0.6,0.7c-0.2,0.1-0.5,0.1-0.6,0
					c-0.2-0.2-0.3-0.4-0.3-0.8s0-0.7,0.2-1.1c0.1-0.3,0.3-0.6,0.6-0.7c0.2-0.1,0.5-0.1,0.6,0C194.1,117.3,194.2,117.5,194.3,117.9z
					 M193.3,118.8c0,0.1,0.1,0.1,0.2,0c0.1,0,0.1-0.1,0.2-0.2c0-0.1,0.1-0.2,0-0.4c0-0.1,0-0.2-0.1-0.3c-0.1-0.1-0.1-0.1-0.2,0
					c-0.1,0-0.1,0.1-0.2,0.2c0,0.1-0.1,0.2,0,0.4C193.2,118.6,193.2,118.7,193.3,118.8z"/>
			</g>
			<g>
				<path class="st2" d="M163.6,166.1l-0.1-1.2l2.4-1.4l0.1,1l-0.7,2c0.3-0.1,0.6,0,0.8,0.2s0.3,0.6,0.4,1c0,0.7-0.1,1.3-0.3,1.8
					c-0.3,0.5-0.6,0.9-1,1.2s-0.9,0.3-1.4,0l0.3-1.3c0.4,0.2,0.8,0.2,1.1,0.1c0.2-0.1,0.3-0.3,0.4-0.5c0.1-0.2,0.1-0.4,0.1-0.7
					s-0.1-0.4-0.2-0.5c-0.1-0.1-0.3-0.1-0.6,0.1c-0.1,0.1-0.3,0.2-0.5,0.5l-0.1-1.1l0.7-1.9L163.6,166.1z"/>
				<path class="st2" d="M166.6,163.1l1.6-0.9l0.5,6.4l-0.9,0.5l-0.4-5.2l-0.8,0.4L166.6,163.1z"/>
				<path class="st2" d="M170.9,162.1c0,0.4,0,0.7-0.2,1.1c-0.1,0.3-0.3,0.6-0.6,0.7c-0.2,0.1-0.5,0.1-0.6,0
					c-0.2-0.2-0.3-0.4-0.3-0.8c0-0.4,0-0.7,0.2-1c0.1-0.3,0.3-0.6,0.6-0.7c0.2-0.1,0.5-0.1,0.6,0
					C170.7,161.5,170.8,161.8,170.9,162.1z M173,159.4l-2.4,8.1l-1,0.6l2.4-8.1L173,159.4z M169.9,163c0,0.1,0.1,0.1,0.2,0
					c0.1,0,0.1-0.1,0.2-0.2c0-0.1,0.1-0.2,0-0.4c0-0.1,0-0.2-0.1-0.3s-0.1-0.1-0.2,0c-0.1,0-0.1,0.1-0.2,0.2c0,0.1-0.1,0.2,0,0.4
					C169.8,162.9,169.8,163,169.9,163z M173.4,164.6c0,0.4,0,0.7-0.2,1.1c-0.1,0.3-0.3,0.6-0.6,0.7c-0.2,0.1-0.5,0.1-0.6,0
					c-0.2-0.2-0.3-0.4-0.3-0.8c0-0.4,0-0.7,0.2-1.1c0.1-0.3,0.3-0.6,0.6-0.7c0.2-0.1,0.5-0.1,0.6,0
					C173.3,163.9,173.4,164.2,173.4,164.6z M172.4,165.5c0,0.1,0.1,0.1,0.2,0c0.1,0,0.1-0.1,0.2-0.2c0-0.1,0.1-0.2,0-0.4
					c0-0.1,0-0.2-0.1-0.3s-0.1-0.1-0.2,0c-0.1,0-0.1,0.1-0.2,0.2c0,0.1-0.1,0.2,0,0.4C172.3,165.3,172.3,165.4,172.4,165.5z"/>
			</g>
			<g>
				<path class="st2" d="M144.4,152.2l0.1,1.2l-1.6,0.9l0.1,1.1c0.1-0.1,0.2-0.2,0.4-0.3c0.4-0.2,0.7-0.2,1,0s0.5,0.6,0.5,1.3
					c0,0.6-0.1,1.2-0.3,1.8c-0.3,0.6-0.6,1-1,1.2c-0.5,0.3-1,0.3-1.4-0.2l0.4-1.3c0,0,0.1,0.1,0.2,0.1c0.1,0,0.2,0.1,0.3,0.1
					c0.2,0,0.3,0,0.5-0.1s0.3-0.2,0.4-0.5c0.1-0.2,0.2-0.5,0.1-0.8c0-0.3-0.1-0.5-0.2-0.6c-0.1-0.1-0.3-0.1-0.5,0.1
					c-0.2,0.1-0.4,0.4-0.7,0.8l-0.4-0.4l-0.2-3.1L144.4,152.2z"/>
				<path class="st2" d="M145.8,151.8c0.2-0.5,0.6-0.8,1-1.1c0.4-0.2,0.7-0.3,1-0.1s0.4,0.5,0.5,1c0,0.5-0.1,1-0.3,1.5
					c0.4,0.2,0.6,0.7,0.6,1.3s-0.1,1.1-0.3,1.7c-0.3,0.5-0.6,1-1.1,1.2c-0.5,0.3-0.8,0.3-1.1,0.1s-0.5-0.6-0.5-1.2
					c0-0.7,0.1-1.3,0.4-1.9c-0.3-0.2-0.4-0.6-0.5-1.1C145.4,152.8,145.5,152.3,145.8,151.8z M146.5,153.4c0.1,0.1,0.3,0.1,0.4,0
					c0.1-0.1,0.3-0.2,0.4-0.4c0.1-0.2,0.1-0.4,0.1-0.6c0-0.2-0.1-0.4-0.2-0.5c-0.1-0.1-0.3-0.1-0.4,0c-0.1,0.1-0.3,0.2-0.4,0.4
					c-0.1,0.2-0.1,0.4-0.1,0.6S146.4,153.3,146.5,153.4z M146.7,156.2c0.1,0.1,0.3,0.1,0.4,0c0.2-0.1,0.3-0.2,0.4-0.5
					c0.1-0.2,0.2-0.5,0.2-0.7c0-0.3-0.1-0.4-0.2-0.5c-0.1-0.1-0.3-0.1-0.5,0s-0.3,0.3-0.4,0.5c-0.1,0.2-0.2,0.5-0.1,0.7
					C146.4,155.9,146.5,156.1,146.7,156.2z"/>
				<path class="st2" d="M150.7,150.1c0,0.4,0,0.7-0.2,1c-0.1,0.3-0.3,0.6-0.6,0.7c-0.2,0.1-0.5,0.1-0.6,0c-0.2-0.2-0.3-0.4-0.3-0.8
					c0-0.4,0-0.7,0.2-1.1c0.1-0.3,0.3-0.6,0.6-0.7c0.2-0.1,0.5-0.1,0.6,0C150.6,149.4,150.7,149.7,150.7,150.1z M152.8,147.3
					l-2.4,8.1l-1,0.6l2.4-8.1L152.8,147.3z M149.7,151c0,0.1,0.1,0.1,0.2,0c0.1,0,0.1-0.1,0.2-0.2c0-0.1,0.1-0.2,0-0.4
					c0-0.1,0-0.2-0.1-0.3s-0.1-0.1-0.2,0c-0.1,0-0.1,0.1-0.2,0.2c0,0.1-0.1,0.2,0,0.4C149.6,150.8,149.7,150.9,149.7,151z
					 M153.2,152.5c0,0.4,0,0.7-0.2,1.1c-0.1,0.3-0.3,0.6-0.6,0.7c-0.2,0.1-0.5,0.1-0.6,0c-0.2-0.2-0.3-0.4-0.3-0.8
					c0-0.4,0-0.7,0.2-1.1c0.1-0.3,0.3-0.6,0.6-0.7c0.2-0.1,0.5-0.1,0.6,0C153.1,151.9,153.2,152.2,153.2,152.5z M152.3,153.4
					c0.1,0.1,0.1,0.1,0.2,0c0.1,0,0.1-0.1,0.2-0.2c0-0.1,0.1-0.2,0-0.4c0-0.1,0-0.2-0.1-0.3s-0.1-0.1-0.2,0c-0.1,0-0.1,0.1-0.2,0.2
					c0,0.1-0.1,0.2,0,0.4C152.2,153.3,152.2,153.4,152.3,153.4z"/>
			</g>
			<g>
				<path class="st2" d="M280.5,129.7l0.2-3.1l-2-1.3l0.1-2.1l2,1.3l0.2-3.1l1.6,1l-0.2,3.1l2,1.3l-0.1,2.1l-2-1.3l-0.2,3.1
					L280.5,129.7z"/>
				<path class="st2" d="M288.9,129.4c0.2-0.3,0.4-0.7,0.4-1.1c0-0.4,0-0.8-0.2-1.2c-0.2-0.4-0.4-0.7-0.6-0.8
					c-0.5-0.3-1-0.1-1.5,0.7l-1.3-2.2c0.4-0.6,0.9-1,1.4-1.2s1.1,0,1.7,0.4c0.7,0.4,1.3,1.1,1.7,2.1c0.5,1,0.7,2,0.6,3.2
					c0,0.6-0.2,1.1-0.4,1.6c-0.2,0.4-0.7,0.9-1.3,1.4l-1.6,1.3l3.1,2l-0.2,2.4l-5.6-3.6l0.1-2l2.6-2.1
					C288.3,130.1,288.7,129.7,288.9,129.4z"/>
				<path class="st2" d="M297.9,130.2l-0.2,2.3l-3.1-2l-0.1,2c0.2,0,0.5,0.2,0.8,0.4c0.8,0.5,1.4,1.3,1.9,2.3s0.7,2.2,0.6,3.3
					c-0.1,1.2-0.4,2-1.1,2.4c-0.6,0.4-1.4,0.3-2.2-0.2c-1.1-0.7-1.9-1.9-2.6-3.5l1.1-1.4c0.1,0.1,0.1,0.3,0.2,0.6
					c0.1,0.2,0.3,0.5,0.6,1c0.3,0.4,0.6,0.8,0.9,0.9c0.3,0.2,0.6,0.2,0.8,0.1c0.3-0.1,0.4-0.5,0.4-1s-0.1-1-0.3-1.5
					c-0.2-0.5-0.6-0.8-1-1.1s-0.9-0.3-1.4-0.2l-0.7-1.7l0.4-5.8L297.9,130.2z"/>
				<path class="st2" d="M302.8,135.4c-0.5-0.3-0.9-0.3-1.2,0c-0.3,0.3-0.5,0.9-0.6,1.7c0.5-0.2,1.1-0.1,1.6,0.3
					c0.7,0.5,1.3,1.2,1.8,2.3c0.4,1,0.6,2.2,0.5,3.4s-0.4,2-1,2.4s-1.3,0.3-2.1-0.2c-0.6-0.4-1-0.8-1.4-1.4c-0.4-0.6-0.7-1.2-0.9-2
					c-0.4-1.4-0.5-3-0.4-4.7c0.1-1.1,0.2-2,0.5-2.7c0.2-0.7,0.5-1.2,0.9-1.5c0.7-0.6,1.4-0.6,2.3,0c0.4,0.2,0.7,0.5,1,0.9
					s0.6,0.7,0.7,1c0.2,0.3,0.4,0.6,0.6,1l-1,1.3c0-0.1-0.1-0.2-0.2-0.4s-0.2-0.4-0.5-0.8C303.3,135.9,303,135.6,302.8,135.4z
					 M302.2,139.6c-0.4-0.2-0.7-0.3-0.9-0.1c-0.3,0.2-0.4,0.5-0.4,1s0.1,1,0.3,1.5c0.2,0.5,0.5,0.9,0.8,1.1c0.3,0.2,0.6,0.2,0.9,0.1
					c0.2-0.2,0.4-0.5,0.4-1s0-1-0.2-1.5C302.9,140.2,302.6,139.8,302.2,139.6z"/>
			</g>
			<g>
				<path class="st1" d="M442.6,231.9c0.1-0.2,0.2-0.3,0.2-0.5s0-0.4-0.1-0.6c-0.1-0.2-0.2-0.3-0.3-0.4c-0.3-0.2-0.5,0-0.8,0.4
					l-0.7-1.1c0.2-0.3,0.5-0.5,0.7-0.6s0.5,0,0.9,0.2s0.6,0.6,0.9,1.1c0.2,0.5,0.3,1.1,0.3,1.6c0,0.3-0.1,0.6-0.2,0.8
					s-0.3,0.5-0.7,0.7l-0.8,0.7l1.6,1l-0.1,1.2l-2.9-1.8l0.1-1l1.3-1.1C442.3,232.2,442.5,232,442.6,231.9z"/>
				<path class="st1" d="M445.8,237.9c-0.6-0.4-1-0.9-1.2-1.7s-0.3-1.6-0.3-2.6s0.3-1.6,0.6-2c0.3-0.4,0.8-0.4,1.3-0.1
					c0.6,0.4,1,0.9,1.2,1.7s0.3,1.6,0.3,2.6c-0.1,1-0.3,1.6-0.6,2C446.8,238.3,446.4,238.3,445.8,237.9z M445.5,232.9
					c-0.2,0.3-0.3,0.7-0.3,1.4c0,0.6,0,1.2,0.1,1.6c0.1,0.5,0.3,0.8,0.6,0.9c0.3,0.2,0.5,0.1,0.6-0.2c0.2-0.3,0.3-0.7,0.3-1.4
					c0-0.6,0-1.2-0.1-1.6c-0.1-0.5-0.3-0.8-0.6-0.9C445.9,232.5,445.7,232.6,445.5,232.9z"/>
				<path class="st1" d="M448.4,233.1l1.6,1.1l-0.4,6.2l-0.9-0.6l0.3-5l-0.8-0.5L448.4,233.1z"/>
				<path class="st1" d="M451.8,240.5c0.3,0.2,0.5,0.2,0.6,0c0.2-0.2,0.3-0.5,0.3-0.9c-0.3,0.1-0.5,0-0.8-0.1
					c-0.4-0.2-0.7-0.6-0.9-1.2c-0.2-0.5-0.3-1.1-0.3-1.7c0-0.6,0.2-1,0.5-1.2s0.7-0.2,1.1,0.1c0.3,0.2,0.5,0.4,0.7,0.7
					s0.4,0.6,0.5,1c0.2,0.7,0.3,1.5,0.2,2.4c0,0.6-0.1,1-0.2,1.4s-0.3,0.6-0.4,0.8c-0.4,0.3-0.8,0.3-1.2,0c-0.2-0.1-0.4-0.3-0.5-0.5
					c-0.2-0.2-0.3-0.4-0.4-0.5s-0.2-0.3-0.3-0.5l0.5-0.7c0,0.1,0.1,0.1,0.1,0.2c0,0.1,0.1,0.2,0.2,0.4
					C451.6,240.4,451.7,240.5,451.8,240.5z M452.1,238.4c0.2,0.1,0.3,0.1,0.5,0.1c0.1-0.1,0.2-0.3,0.2-0.5c0-0.3,0-0.5-0.1-0.8
					s-0.2-0.4-0.4-0.6c-0.2-0.1-0.3-0.1-0.4,0s-0.2,0.3-0.2,0.5c0,0.3,0,0.5,0.1,0.8C451.8,238.1,451.9,238.3,452.1,238.4z"/>
			</g>
			<g>
				<path class="st1" d="M413,194.9c0.1-0.2,0.2-0.3,0.2-0.5s0-0.4-0.1-0.6c-0.1-0.2-0.2-0.3-0.3-0.4c-0.3-0.2-0.5,0-0.8,0.4
					l-0.7-1.1c0.2-0.3,0.5-0.5,0.7-0.6s0.5,0,0.9,0.2s0.6,0.6,0.9,1.1c0.2,0.5,0.3,1.1,0.3,1.6c0,0.3-0.1,0.6-0.2,0.8
					s-0.3,0.5-0.7,0.7l-0.8,0.7l1.6,1l-0.1,1.2l-2.9-1.8l0.1-1l1.3-1.1C412.7,195.2,412.9,195,413,194.9z"/>
				<path class="st1" d="M416.2,200.9c-0.6-0.4-1-0.9-1.2-1.7s-0.3-1.6-0.3-2.6c0.1-1,0.3-1.6,0.6-2c0.3-0.4,0.8-0.4,1.3-0.1
					c0.6,0.4,1,0.9,1.2,1.7s0.3,1.6,0.3,2.6c-0.1,1-0.3,1.6-0.6,2C417.3,201.2,416.8,201.3,416.2,200.9z M416,195.9
					c-0.2,0.3-0.3,0.7-0.3,1.4c0,0.6,0,1.2,0.1,1.6c0.1,0.5,0.3,0.8,0.6,0.9c0.3,0.2,0.5,0.1,0.6-0.2c0.2-0.3,0.3-0.7,0.3-1.4
					c0-0.6,0-1.2-0.1-1.6c-0.1-0.5-0.3-0.8-0.6-0.9C416.3,195.5,416.1,195.6,416,195.9z"/>
				<path class="st1" d="M418.9,196.1l1.6,1.1l-0.4,6.2l-0.9-0.6l0.3-5l-0.8-0.5L418.9,196.1z"/>
				<path class="st1" d="M421.9,198.3c0.3-0.1,0.6-0.1,1,0.2s0.7,0.6,1,1.1c0.2,0.5,0.4,1,0.3,1.4c0,0.5-0.2,0.8-0.4,1
					c0.3,0.6,0.4,1.2,0.4,1.9c0,0.5-0.2,0.9-0.5,1.1c-0.3,0.2-0.7,0.1-1.2-0.2s-0.8-0.7-1.1-1.3c-0.3-0.6-0.4-1.1-0.3-1.6
					c0-0.6,0.2-1,0.6-1.2c-0.2-0.5-0.3-1-0.3-1.5C421.4,198.8,421.6,198.5,421.9,198.3z M422.1,203.2c0.1,0.2,0.3,0.4,0.4,0.5
					c0.2,0.1,0.3,0.1,0.5,0.1c0.1-0.1,0.2-0.2,0.2-0.5s0-0.5-0.2-0.7c-0.1-0.2-0.3-0.4-0.4-0.5c-0.2-0.1-0.3-0.1-0.5-0.1
					c-0.1,0.1-0.2,0.2-0.2,0.5S422,203,422.1,203.2z M422.4,200.6c0.1,0.2,0.2,0.4,0.4,0.5c0.1,0.1,0.3,0.1,0.4,0s0.2-0.2,0.2-0.4
					s0-0.4-0.1-0.6c-0.1-0.2-0.2-0.4-0.4-0.5c-0.2-0.1-0.3-0.1-0.4,0s-0.2,0.2-0.2,0.4C422.2,200.2,422.3,200.4,422.4,200.6z"/>
			</g>
			<g>
				<path class="st1" d="M380.2,207.6c0.1-0.2,0.2-0.3,0.2-0.5s0-0.4-0.1-0.6c-0.1-0.2-0.2-0.3-0.3-0.4c-0.3-0.2-0.5,0-0.8,0.4
					l-0.7-1.1c0.2-0.3,0.5-0.5,0.7-0.6s0.5,0,0.9,0.2s0.6,0.6,0.9,1.1c0.2,0.5,0.3,1.1,0.3,1.6c0,0.3-0.1,0.6-0.2,0.8
					s-0.3,0.5-0.7,0.7l-0.8,0.7l1.6,1l-0.1,1.2l-2.9-1.8l0.1-1l1.3-1.1C379.9,208,380.1,207.8,380.2,207.6z"/>
				<path class="st1" d="M383.4,213.7c-0.6-0.4-1-0.9-1.2-1.7s-0.3-1.6-0.3-2.6c0.1-1,0.3-1.6,0.6-2c0.3-0.4,0.8-0.4,1.3-0.1
					c0.6,0.4,1,0.9,1.2,1.7s0.3,1.6,0.3,2.6s-0.3,1.6-0.6,2C384.4,214,384,214,383.4,213.7z M383.2,208.6c-0.2,0.3-0.3,0.7-0.3,1.4
					c0,0.6,0,1.2,0.1,1.6c0.1,0.5,0.3,0.8,0.6,0.9c0.3,0.2,0.5,0.1,0.6-0.2c0.2-0.3,0.3-0.7,0.3-1.4c0-0.6,0-1.2-0.1-1.6
					c-0.1-0.5-0.3-0.8-0.6-0.9C383.5,208.3,383.3,208.3,383.2,208.6z"/>
				<path class="st1" d="M386.1,208.9l1.6,1.1l-0.4,6.2l-0.9-0.6l0.3-5l-0.8-0.5L386.1,208.9z"/>
				<path class="st1" d="M388.4,212.4l0.1-2l2.9,1.9l-0.1,1l-2,4.1l-1-0.6l1.9-4l-1-0.7l-0.1,0.8L388.4,212.4z"/>
			</g>
			<g>
				<path class="st1" d="M354.2,194.9c0.1-0.2,0.2-0.3,0.2-0.5s0-0.4-0.1-0.6c-0.1-0.2-0.2-0.3-0.3-0.4c-0.3-0.2-0.5,0-0.8,0.4
					l-0.7-1.1c0.2-0.3,0.5-0.5,0.7-0.6s0.5,0,0.9,0.2s0.6,0.6,0.9,1.1c0.2,0.5,0.3,1.1,0.3,1.6c0,0.3-0.1,0.6-0.2,0.8
					s-0.3,0.5-0.7,0.7l-0.8,0.7l1.6,1l-0.1,1.2l-2.9-1.8l0.1-1l1.3-1.1C353.9,195.2,354.1,195,354.2,194.9z"/>
				<path class="st1" d="M357.5,200.9c-0.6-0.4-1-0.9-1.2-1.7s-0.3-1.6-0.3-2.6c0.1-1,0.3-1.6,0.6-2c0.3-0.4,0.8-0.4,1.3-0.1
					c0.6,0.4,1,0.9,1.2,1.7s0.3,1.6,0.3,2.6c-0.1,1-0.3,1.6-0.6,2C358.5,201.2,358,201.3,357.5,200.9z M357.2,195.9
					c-0.2,0.3-0.2,0.7-0.3,1.4c0,0.6,0,1.2,0.1,1.6c0.1,0.5,0.3,0.8,0.6,0.9c0.3,0.2,0.5,0.1,0.6-0.2c0.2-0.3,0.3-0.7,0.3-1.4
					c0-0.6,0-1.2-0.1-1.6c-0.1-0.5-0.3-0.8-0.6-0.9C357.5,195.5,357.3,195.6,357.2,195.9z"/>
				<path class="st1" d="M360.1,196.1l1.6,1.1l-0.4,6.2l-0.9-0.6l0.3-5l-0.8-0.5L360.1,196.1z"/>
				<path class="st1" d="M364.2,199.8c-0.3-0.2-0.5-0.2-0.6,0c-0.2,0.2-0.3,0.5-0.3,0.9c0.3-0.1,0.5,0,0.8,0.1
					c0.4,0.2,0.7,0.6,0.9,1.2c0.2,0.5,0.3,1.1,0.3,1.7c0,0.6-0.2,1-0.5,1.2s-0.7,0.2-1.1-0.1c-0.3-0.2-0.5-0.4-0.7-0.7
					s-0.4-0.6-0.4-1c-0.2-0.7-0.3-1.5-0.2-2.4c0-0.6,0.1-1,0.2-1.4s0.3-0.6,0.4-0.8c0.3-0.3,0.7-0.3,1.2,0c0.2,0.1,0.4,0.3,0.5,0.5
					c0.2,0.2,0.3,0.4,0.4,0.5s0.2,0.3,0.3,0.5l-0.5,0.7c0,0-0.1-0.1-0.1-0.2c0-0.1-0.1-0.2-0.2-0.4
					C364.5,200,364.3,199.9,364.2,199.8z M364,201.9c-0.2-0.1-0.3-0.1-0.5,0c-0.1,0.1-0.2,0.3-0.2,0.5c0,0.3,0,0.5,0.1,0.8
					s0.2,0.4,0.4,0.6c0.2,0.1,0.3,0.1,0.5,0c0.1-0.1,0.2-0.3,0.2-0.5c0-0.3,0-0.5-0.1-0.8S364.1,202.1,364,201.9z"/>
			</g>
		</g>
	</g>
</g>
</svg>
