<?xml version="1.0" encoding="utf-8"?>
<!-- Generator: Adobe Illustrator 28.0.0, SVG Export Plug-In . SVG Version: 6.00 Build 0)  -->
<svg version="1.1" id="Layer_1" xmlns="http://www.w3.org/2000/svg" xmlns:xlink="http://www.w3.org/1999/xlink" x="0px" y="0px"
	 viewBox="0 0 124.4 62.8" style="enable-background:new 0 0 124.4 62.8;" xml:space="preserve">
<style type="text/css">
	.st0{fill:#1E429A;}
	.st1{opacity:0.21;}
</style>
<g>
	<g>
		<path class="st0" d="M60.2,13.9v1.5c0,0.4,0,0.7,0.1,0.8c0.1,0.1,0.2,0.2,0.5,0.2H61h0.3h0.6c0.5,0,0.8-0.3,1.1-0.8l0.2-0.3
			c0-0.1,0.1-0.1,0.2-0.1c0.1,0,0.2,0.1,0.2,0.2c0,0,0,0.1,0,0.3c0,0.1,0,0.2,0,0.3c0,0.1,0,0.5,0.1,1.1c0,0.4,0,0.7,0,0.9v0.4
			c0,0.1,0,0.1,0,0.1h-0.1c-0.1,0-0.2-0.1-0.2-0.3c-0.1-0.4-0.2-0.7-0.4-0.9c-0.1-0.1-0.3-0.2-0.4-0.2c-0.2,0-0.5,0-1,0h-0.5
			c-0.2,0-0.4,0-0.5,0.1s-0.1,0.2-0.2,0.4c0,0.2,0,0.6,0,1.1v0.6c0,0.7,0.1,1.1,0.2,1.4c0.1,0.2,0.2,0.4,0.3,0.4
			c0.1,0.1,0.3,0.1,0.5,0.1c1.9,0,3.1-0.6,3.7-1.7c0-0.1,0.1-0.1,0.1-0.1h0.1c0,0,0.1,0.1,0.1,0.2c0,0.5-0.1,0.9-0.4,1.3
			c-0.2,0.4-0.5,0.6-0.8,0.8c-0.3,0.2-0.7,0.2-1.2,0.2c-0.3,0-0.6,0-1-0.1l-1,0.1c-0.3,0-0.7,0-1.2,0c-0.3,0-0.9,0-1.6,0.1
			c-0.2,0-0.3,0-0.4,0c-0.1,0-0.2-0.1-0.2-0.2s0-0.1,0.2-0.2c0.3-0.1,0.4-0.2,0.5-0.3c0.1-0.1,0.2-0.3,0.2-0.6
			c0.1-0.2,0.1-0.6,0.1-1v-5.5c0-0.5-0.1-0.9-0.3-1.1s-0.5-0.3-1.1-0.4c-0.1,0-0.2-0.1-0.2-0.2c0-0.1,0.1-0.2,0.2-0.2
			c0,0,0.1,0,0.2,0c0.1,0,0.2,0,0.3,0h0.7H61c1.5,0,2.5,0,2.8-0.1h0.1c0.1,0,0.2,0.1,0.2,0.2c0,0.1,0,0.3,0,0.6
			c0,0.4,0.1,0.7,0.1,0.9c0,0.4-0.1,0.5-0.3,0.5c-0.1,0-0.1-0.1-0.1-0.3c0-0.5-0.2-0.8-0.5-1s-0.9-0.3-1.6-0.3h-0.9l-0.5,0.1
			c-0.2,0.1-0.4,0.3-0.4,0.7L60.2,13.9z"/>
		<path class="st0" d="M69.1,18.5c0.1-0.2,0.1-0.4,0.1-0.5c0-0.5-0.1-0.8-0.3-1.1c-0.2-0.3-0.5-0.4-0.9-0.4s-0.7,0.2-0.7,0.6
			c0,0.1,0,0.1,0,0.2v0.1c0,0.3-0.4,0.5-1.1,0.5c-0.2,0-0.3-0.1-0.3-0.2c0,0,0-0.1,0-0.2s0-0.1,0-0.2c0.1-0.3,0.2-0.5,0.4-0.7
			c0.5-0.4,1.1-0.5,1.8-0.5c0.8,0,1.4,0.2,1.8,0.6c0.3,0.3,0.5,0.8,0.5,1.5c0,0.4,0,0.8,0,1.3c0,0.6,0,1,0,1.2
			c0,0.5,0.2,0.7,0.6,0.7c0.1,0,0.2,0,0.3,0c0.1,0,0.1,0,0.2,0s0.1,0,0.1,0.1s-0.1,0.2-0.3,0.3L71,21.9L70.8,22c-0.1,0-0.3,0-0.5,0
			c-0.4,0-0.8-0.3-1-0.8c-0.9,0.6-1.6,0.8-2.2,0.8c-0.4,0-0.7-0.1-0.9-0.3s-0.3-0.5-0.3-1c0-0.7,0.3-1.3,1-1.6
			C67.2,19,68,18.8,69.1,18.5z M69,18.9c-0.4,0-0.8,0.1-1.1,0.4s-0.5,0.7-0.5,1c0,0.6,0.2,0.9,0.7,0.9c0.3,0,0.6-0.1,0.8-0.2
			c0.1-0.1,0.2-0.2,0.3-0.4c0-0.2,0.1-0.5,0.1-0.9v-0.5v-0.1v-0.2C69.1,19,69.1,19,69,18.9z"/>
		<path class="st0" d="M74.2,18.4v2c0,0.7,0.3,1.1,1,1.2c0.1,0,0.2,0.1,0.2,0.2S75.3,22,75.2,22s-0.1,0-0.2,0
			c-0.5-0.1-0.9-0.1-1.4-0.1c-0.3,0-0.5,0-0.7,0h-0.4c-0.1,0-0.2,0-0.2,0c-0.1,0-0.2-0.1-0.2-0.2s0.1-0.1,0.2-0.2
			c0.4-0.1,0.6-0.4,0.6-1v-0.3v-2.5c0-0.3,0-0.6-0.1-0.7s-0.3-0.2-0.6-0.2c-0.1,0-0.2-0.1-0.2-0.1c0-0.1,0.1-0.2,0.2-0.2
			c0.6-0.1,1.2-0.3,1.6-0.5l0.3-0.2h0.1c0.1,0,0.1,0.1,0.1,0.2c0,0,0,0.1,0,0.2v0.4V17v0.1c0,0.1,0.1,0.1,0.1,0.1s0.1-0.1,0.3-0.3
			c0.1-0.2,0.3-0.4,0.6-0.6s0.4-0.3,0.5-0.3c0.2,0,0.4,0.1,0.7,0.4s0.5,0.4,0.5,0.5c0,0-0.1,0.2-0.2,0.5c-0.2,0.4-0.4,0.5-0.5,0.5
			s-0.1,0-0.2-0.1l-0.2-0.2c-0.2-0.2-0.5-0.3-0.8-0.3C74.5,17.3,74.2,17.6,74.2,18.4z"/>
		<path class="st0" d="M79.6,13.8V20v0.2c0,0.5,0.1,0.8,0.2,1s0.4,0.3,0.8,0.4c0.1,0,0.2,0,0.2,0.1v0.1c0,0.1,0,0.2-0.1,0.2
			s-0.1,0-0.2,0c-0.4-0.1-0.8-0.1-1.4-0.1s-1,0-1.3,0.1c-0.1,0-0.1,0-0.2,0s-0.1-0.1-0.1-0.2s0.1-0.1,0.2-0.2
			c0.4-0.1,0.5-0.4,0.5-0.9v-0.4v-0.2v-5.6c0-0.6,0-1-0.2-1.2c-0.1-0.2-0.3-0.3-0.6-0.3c-0.1,0-0.2-0.1-0.2-0.2c0-0.1,0-0.1,0.1-0.1
			s0.2-0.1,0.4-0.1c0.6-0.1,1.1-0.3,1.4-0.5l0.2-0.1h0.1c0.1,0,0.1,0,0.1,0.1s0,0.2,0,0.3C79.6,12.8,79.6,13.4,79.6,13.8z"/>
		<path class="st0" d="M83.1,17.5l1.2,2.3c0.1,0.2,0.2,0.3,0.2,0.3c0.1,0,0.2-0.2,0.3-0.5l0.3-0.8c0.3-0.8,0.5-1.4,0.5-1.7
			c0-0.2-0.1-0.3-0.2-0.5c-0.1-0.1-0.3-0.2-0.5-0.3c-0.1,0-0.2-0.1-0.2-0.1c0-0.1,0-0.2,0.2-0.2c0.1,0,0.1,0,0.2,0
			c0.4,0,0.7,0.1,1,0.1s0.5,0,0.6,0s0.2,0,0.2,0c0.1,0,0.1,0.1,0.1,0.2s-0.1,0.2-0.2,0.2c-0.3,0.1-0.5,0.4-0.7,0.8L86,17.6L83.5,24
			c-0.1,0.1-0.2,0.2-0.3,0.2c0,0-0.1,0-0.2,0h-0.4c-0.1,0-0.1,0-0.1-0.1c0,0,0-0.1,0.1-0.1c0.8-0.9,1.1-1.6,1.1-1.9
			c0-0.1-0.1-0.2-0.2-0.5l-2.2-4.4l-0.2-0.4c-0.1-0.2-0.3-0.3-0.5-0.4c-0.1,0-0.1-0.1-0.1-0.1c0-0.1,0.1-0.2,0.2-0.2s0.1,0,0.2,0
			c0.4,0,0.8,0.1,1.1,0.1c0.4,0,0.8,0,1.3-0.1c0.1,0,0.1,0,0.1,0c0.1,0,0.2,0.1,0.2,0.2s-0.1,0.2-0.2,0.2h-0.2
			c-0.3,0-0.4,0.2-0.4,0.4C82.9,17,83,17.2,83.1,17.5z"/>
		<path class="st0" d="M62.3,26.2c0.9,0,1.6,0.2,2.3,0.6L65,27c0.1,0.1,0.2,0.1,0.3,0.1c0.1,0,0.2,0,0.2-0.1l0.1-0.2l0.1-0.1
			c0.1,0,0.2,0.2,0.2,0.5v0.5v0.6l0.1,0.5l0.1,0.3c0,0.2,0,0.3,0,0.4c0,0.2-0.1,0.3-0.2,0.3s-0.1-0.1-0.1-0.2c0-0.2-0.2-0.4-0.4-0.8
			c-0.2-0.4-0.4-0.7-0.6-0.9c-0.8-0.9-1.7-1.3-2.7-1.3c-0.9,0-1.6,0.4-2.1,1.1s-0.8,1.7-0.8,2.8c0,1.5,0.5,2.7,1.3,3.6
			c0.7,0.7,1.4,1,2.2,1c0.5,0,1-0.1,1.5-0.3s0.9-0.5,1.2-0.8l0.5-0.5c0.1-0.1,0.1-0.1,0.2-0.1s0.1,0,0.1,0.2s-0.2,0.5-0.6,0.9
			c-1,1.1-2.2,1.6-3.6,1.6c-1.4,0-2.5-0.4-3.3-1.3c-0.9-0.9-1.3-2-1.3-3.4c0-0.8,0.2-1.5,0.5-2.3s0.8-1.3,1.3-1.8
			C60.1,26.6,61.1,26.2,62.3,26.2z"/>
		<path class="st0" d="M69.2,31.6v2.6v0.2c0,0.4,0,0.6,0.1,0.8s0.3,0.3,0.6,0.3l0.3,0.1c0.1,0,0.2,0.1,0.1,0.2
			c0,0.1-0.1,0.2-0.2,0.2s-0.2,0-0.3,0c-0.3-0.1-0.7-0.1-1-0.1c-0.2,0-0.6,0-1.1,0.1c-0.2,0-0.3,0-0.4,0c-0.2,0-0.3-0.1-0.3-0.2
			c0-0.1,0-0.1,0.1-0.1c0.4-0.1,0.6-0.5,0.6-1.1v-6.8v-0.3c0-0.2-0.1-0.3-0.2-0.4S67.2,27,67,26.9c-0.1,0-0.1-0.1-0.1-0.1
			c0-0.1,0-0.1,0.1-0.2s0.2-0.1,0.5-0.1c0.4-0.1,0.9-0.3,1.3-0.5c0.2-0.1,0.4-0.2,0.4-0.2c0.1,0,0.1,0,0.1,0.1s0,0.2,0,0.3
			c0,0.5-0.1,1-0.1,1.6v3.1c0,0.1,0,0.1,0,0.1h0.1c0.6-0.7,1.2-1,1.9-1c0.7,0,1.3,0.3,1.7,0.8c0.3,0.4,0.4,1.1,0.4,2.1v1.2v0.3
			c0,0.4,0,0.6,0.1,0.7c0,0.1,0.1,0.2,0.3,0.3c0.1,0.1,0.3,0.2,0.6,0.2c0.2,0,0.2,0.1,0.2,0.2c0,0.1-0.1,0.1-0.2,0.1H74h-0.2
			c-0.3,0-0.6-0.1-0.9-0.1c-0.5,0-0.9,0-1.3,0.1c-0.1,0-0.1,0-0.1,0c-0.1,0-0.2-0.1-0.2-0.2c0-0.1,0-0.1,0.1-0.1
			c0.2-0.1,0.4-0.2,0.4-0.3c0.1-0.1,0.1-0.4,0.1-0.8v-1.4c0-0.8-0.1-1.3-0.3-1.6c-0.3-0.4-0.6-0.6-1.1-0.6
			C69.8,30.8,69.4,31.1,69.2,31.6z"/>
		<path class="st0" d="M77.2,30.3v4c0,0.5,0.1,0.8,0.2,1s0.4,0.3,0.8,0.3c0.2,0,0.2,0.1,0.2,0.2c0,0.1-0.2,0.2-0.6,0.2
			c0,0-0.1,0-0.3,0L77,35.8c-0.3,0-0.5,0-0.6,0c-0.2,0-0.6,0-1,0.1c-0.1,0-0.2,0-0.2,0c-0.1,0-0.1,0-0.1-0.1s0-0.1,0.1-0.1l0.2-0.1
			c0.1-0.1,0.2-0.2,0.3-0.4s0.1-0.4,0.1-0.6v-0.3v-2.4c0-0.4,0-0.6-0.1-0.8c-0.1-0.1-0.2-0.2-0.4-0.2h-0.2c-0.1,0-0.1,0-0.2-0.1
			v-0.1c0-0.1,0.1-0.2,0.4-0.3c0.7-0.1,1.3-0.4,1.7-0.7c0.1,0,0.1,0,0.1,0c0.1,0,0.1,0,0.1,0.1v0.1C77.2,30,77.2,30.1,77.2,30.3z
			 M76.4,26.5c0.1,0,0.3,0.2,0.5,0.5l0.3,0.4c0.1,0.1,0.1,0.2,0.1,0.2c0,0.1-0.1,0.3-0.4,0.6c-0.3,0.3-0.4,0.5-0.5,0.5
			s-0.1,0-0.2-0.1l-0.3-0.4l-0.3-0.3c-0.1-0.1-0.1-0.2-0.1-0.2c0-0.1,0.1-0.3,0.4-0.6S76.4,26.5,76.4,26.5z"/>
		<path class="st0" d="M81,27.8V34v0.2c0,0.5,0.1,0.8,0.2,1s0.4,0.3,0.8,0.4c0.1,0,0.2,0,0.2,0.1v0.1c0,0.1,0,0.2-0.1,0.2
			s-0.1,0-0.2,0c-0.4-0.1-0.8-0.1-1.4-0.1s-1,0-1.3,0.1c-0.1,0-0.1,0-0.2,0s-0.1-0.1-0.1-0.2c0-0.1,0.1-0.1,0.2-0.2
			c0.4-0.1,0.5-0.4,0.5-0.9v-0.4v-0.2v-5.6c0-0.6,0-1-0.2-1.2c-0.1-0.2-0.3-0.3-0.6-0.3c-0.1,0-0.2-0.1-0.2-0.2s0-0.1,0.1-0.1
			s0.2-0.1,0.4-0.1c0.6-0.1,1.1-0.3,1.4-0.5l0.2-0.1h0.1c0.1,0,0.1,0,0.1,0.1s0,0.2,0,0.3C81,26.9,81,27.4,81,27.8z"/>
		<path class="st0" d="M88.6,28.3v5.8c0,0.5,0.1,0.8,0.2,0.9c0.1,0.2,0.3,0.2,0.6,0.2c0.1,0,0.2,0.1,0.2,0.2c0,0.1-0.1,0.2-0.2,0.2
			H89l-0.6,0.1c-0.3,0-0.6,0.1-1,0.3c-0.1,0-0.2,0-0.2,0s-0.1,0-0.1-0.1v-0.6c0-0.1,0-0.1,0-0.2l0,0c0,0-0.1,0-0.1,0.1
			c-0.2,0.2-0.5,0.4-0.9,0.6S85.4,36,85,36c-0.7,0-1.3-0.2-1.7-0.7c-0.4-0.5-0.7-1.1-0.7-1.9c0-1,0.3-1.8,0.9-2.5s1.3-1,2.1-1
			c0.4,0,0.9,0.1,1.3,0.3H87c0.1,0,0.1-0.1,0.1-0.2v-1.6c0-0.6-0.1-1-0.2-1.2S86.7,27,86.4,27c-0.2,0-0.2-0.1-0.2-0.2s0-0.2,0.1-0.2
			l0.4-0.1c0.6-0.1,1.2-0.3,1.6-0.6c0.1-0.1,0.2-0.1,0.2-0.1c0.1,0,0.1,0.1,0.1,0.2c0,0,0,0.1,0,0.2c0,0.2,0,0.3,0,0.4V27V28.3z
			 M87.2,34.3v-2.6c0-0.4-0.2-0.7-0.5-1c-0.4-0.3-0.8-0.4-1.3-0.4c-0.4,0-0.8,0.2-1.1,0.6c-0.3,0.4-0.4,0.9-0.4,1.5
			c0,0.8,0.2,1.4,0.6,1.9s0.9,0.8,1.5,0.8c0.2,0,0.4,0,0.7-0.1s0.4-0.2,0.5-0.3C87.2,34.6,87.2,34.5,87.2,34.3z"/>
		<path class="st0" d="M92.5,31.6v2.6v0.2c0,0.4,0,0.6,0.1,0.8s0.3,0.3,0.6,0.3l0.3,0.1c0.1,0,0.2,0.1,0.1,0.2
			c0,0.1-0.1,0.2-0.2,0.2s-0.2,0-0.3,0c-0.3-0.1-0.7-0.1-1-0.1c-0.2,0-0.6,0-1.1,0.1c-0.2,0-0.3,0-0.4,0c-0.2,0-0.3-0.1-0.3-0.2
			c0-0.1,0-0.1,0.1-0.1c0.4-0.1,0.6-0.5,0.6-1.1v-6.8v-0.3c0-0.2-0.1-0.3-0.2-0.4s-0.3-0.1-0.5-0.2c-0.1,0-0.1-0.1-0.1-0.1
			c0-0.1,0-0.1,0.1-0.2s0.2-0.1,0.5-0.1c0.4-0.1,0.9-0.3,1.3-0.5c0.2-0.1,0.4-0.2,0.4-0.2c0.1,0,0.1,0,0.1,0.1s0,0.2,0,0.3
			c0,0.5-0.1,1-0.1,1.6v3.1c0,0.1,0,0.1,0,0.1h0.1c0.6-0.7,1.2-1,1.9-1c0.7,0,1.3,0.3,1.7,0.8c0.3,0.4,0.4,1.1,0.4,2.1v1.2v0.3
			c0,0.4,0,0.6,0.1,0.7c0,0.1,0.1,0.2,0.3,0.3c0.1,0.1,0.3,0.2,0.6,0.2c0.2,0,0.2,0.1,0.2,0.2c0,0.1-0.1,0.1-0.2,0.1h-0.3h-0.2
			c-0.3,0-0.6-0.1-0.9-0.1c-0.5,0-0.9,0-1.3,0.1c-0.1,0-0.1,0-0.1,0c-0.1,0-0.2-0.1-0.2-0.2c0-0.1,0-0.1,0.1-0.1
			c0.2-0.1,0.4-0.2,0.4-0.3c0.1-0.1,0.1-0.4,0.1-0.8v-1.4c0-0.8-0.1-1.3-0.3-1.6c-0.3-0.4-0.6-0.6-1.1-0.6
			C93.1,30.8,92.7,31.1,92.5,31.6z"/>
		<path class="st0" d="M101.5,30c0.9,0,1.6,0.3,2.2,0.8c0.6,0.6,0.9,1.3,0.9,2.1c0,0.9-0.3,1.6-0.9,2.2s-1.4,0.9-2.3,0.9
			s-1.6-0.3-2.2-0.8s-0.9-1.2-0.9-2.1c0-0.9,0.3-1.6,1-2.2S100.6,30,101.5,30z M101.1,30.4c-0.4,0-0.8,0.2-1.1,0.6s-0.4,0.9-0.4,1.5
			c0,0.9,0.2,1.6,0.6,2.3s0.9,0.9,1.5,0.9c0.4,0,0.8-0.2,1.1-0.5c0.3-0.4,0.4-0.8,0.4-1.4c0-0.9-0.2-1.7-0.6-2.4
			S101.7,30.4,101.1,30.4z"/>
		<path class="st0" d="M108.7,30c0.9,0,1.6,0.3,2.2,0.8c0.6,0.6,0.9,1.3,0.9,2.1c0,0.9-0.3,1.6-0.9,2.2s-1.4,0.9-2.3,0.9
			s-1.6-0.3-2.2-0.8s-0.9-1.2-0.9-2.1c0-0.9,0.3-1.6,1-2.2S107.8,30,108.7,30z M108.3,30.4c-0.4,0-0.8,0.2-1.1,0.6s-0.4,0.9-0.4,1.5
			c0,0.9,0.2,1.6,0.6,2.3s0.9,0.9,1.5,0.9c0.4,0,0.8-0.2,1.1-0.5c0.3-0.4,0.4-0.8,0.4-1.4c0-0.9-0.2-1.7-0.6-2.4
			S108.9,30.4,108.3,30.4z"/>
		<path class="st0" d="M118.5,28.3v5.8c0,0.5,0.1,0.8,0.2,0.9c0.1,0.2,0.3,0.2,0.6,0.2c0.1,0,0.2,0.1,0.2,0.2c0,0.1-0.1,0.2-0.2,0.2
			h-0.4l-0.6,0.1c-0.3,0-0.6,0.1-1,0.3c-0.1,0-0.2,0-0.2,0s-0.1,0-0.1-0.1v-0.6c0-0.1,0-0.1,0-0.2l0,0c0,0-0.1,0-0.1,0.1
			c-0.2,0.2-0.5,0.4-0.9,0.6s-0.7,0.2-1.1,0.2c-0.7,0-1.3-0.2-1.7-0.7c-0.4-0.5-0.7-1.1-0.7-1.9c0-1,0.3-1.8,0.9-2.5s1.3-1,2.1-1
			c0.4,0,0.9,0.1,1.3,0.3h0.1c0.1,0,0.1-0.1,0.1-0.2v-1.6c0-0.6-0.1-1-0.2-1.2s-0.3-0.3-0.6-0.3c-0.2,0-0.2-0.1-0.2-0.2
			s0-0.2,0.1-0.2l0.4-0.1c0.6-0.1,1.2-0.3,1.6-0.6c0.1-0.1,0.2-0.1,0.2-0.1c0.1,0,0.1,0.1,0.1,0.2c0,0,0,0.1,0,0.2
			c0,0.2,0,0.3,0,0.4v0.4L118.5,28.3z M117.1,34.3v-2.6c0-0.4-0.2-0.7-0.5-1c-0.4-0.3-0.8-0.4-1.3-0.4c-0.4,0-0.8,0.2-1.1,0.6
			c-0.3,0.4-0.4,0.9-0.4,1.5c0,0.8,0.2,1.4,0.6,1.9s0.9,0.8,1.5,0.8c0.2,0,0.4,0,0.7-0.1s0.4-0.2,0.5-0.3
			C117.1,34.6,117.1,34.5,117.1,34.3z"/>
		<path class="st0" d="M60.2,42v1.5c0,0.4,0,0.7,0.1,0.8s0.2,0.2,0.5,0.2H61h0.3h0.6c0.5,0,0.8-0.3,1.1-0.8l0.2-0.3
			c0-0.1,0.1-0.1,0.2-0.1c0.1,0,0.2,0.1,0.2,0.2c0,0,0,0.1,0,0.3c0,0.1,0,0.2,0,0.3s0,0.5,0.1,1.1c0,0.4,0,0.7,0,0.9v0.4
			c0,0.1,0,0.1,0,0.1h-0.1c-0.1,0-0.2-0.1-0.2-0.3c-0.1-0.4-0.2-0.7-0.4-0.9c-0.1-0.1-0.3-0.2-0.4-0.2c-0.2,0-0.5,0-1,0h-0.5
			c-0.2,0-0.4,0-0.5,0.1s-0.1,0.2-0.2,0.4c0,0.2,0,0.6,0,1.1v0.6c0,0.7,0.1,1.1,0.2,1.4c0.1,0.2,0.2,0.4,0.3,0.4
			c0.1,0.1,0.3,0.1,0.5,0.1c1.9,0,3.1-0.6,3.7-1.7c0-0.1,0.1-0.1,0.1-0.1h0.1c0,0,0.1,0.1,0.1,0.2c0,0.5-0.1,0.9-0.4,1.3
			c-0.2,0.4-0.5,0.6-0.8,0.8C63.9,50,63.5,50,63,50c-0.3,0-0.6,0-1-0.1h-1c-0.3,0-0.7,0-1.2,0c-0.3,0-0.9,0-1.6,0.1
			c-0.2,0-0.3,0-0.4,0c-0.1,0-0.2-0.1-0.2-0.2c0-0.1,0-0.1,0.2-0.2c0.3-0.1,0.4-0.2,0.5-0.3s0.2-0.3,0.2-0.6c0.1-0.2,0.1-0.6,0.1-1
			v-5.5c0-0.5-0.1-0.9-0.3-1.1s-0.5-0.3-1.1-0.4c-0.1,0-0.2-0.1-0.2-0.2c0-0.1,0.1-0.2,0.2-0.2c0,0,0.1,0,0.2,0c0.1,0,0.2,0,0.3,0
			h0.7H61c1.5,0,2.5,0,2.8-0.1h0.1c0.1,0,0.2,0.1,0.2,0.2c0,0.1,0,0.3,0,0.6c0,0.4,0.1,0.7,0.1,0.9c0,0.4-0.1,0.5-0.3,0.5
			c-0.1,0-0.1-0.1-0.1-0.3c0-0.5-0.2-0.8-0.5-1s-0.9-0.3-1.6-0.3h-0.9L60.6,41c-0.2,0.1-0.4,0.3-0.4,0.7L60.2,42z"/>
		<path class="st0" d="M71.8,42.3v5.8c0,0.5,0.1,0.8,0.2,0.9c0.1,0.2,0.3,0.2,0.6,0.2c0.1,0,0.2,0.1,0.2,0.2c0,0.1-0.1,0.2-0.2,0.2
			h-0.4l-0.6,0.1c-0.3,0-0.6,0.1-1,0.3c-0.1,0-0.2,0-0.2,0s-0.1,0-0.1-0.1v-0.6c0-0.1,0-0.1,0-0.2l0,0c0,0-0.1,0-0.1,0.1
			c-0.2,0.2-0.5,0.4-0.9,0.6S68.6,50,68.2,50c-0.7,0-1.3-0.2-1.7-0.7c-0.4-0.5-0.7-1.1-0.7-1.9c0-1,0.3-1.8,0.9-2.5s1.3-1,2.1-1
			c0.4,0,0.9,0.1,1.3,0.3h0.1c0.1,0,0.1-0.1,0.1-0.2v-1.6c0-0.6-0.1-1-0.2-1.2S69.9,41,69.6,41c-0.2,0-0.2-0.1-0.2-0.2
			c0-0.1,0-0.2,0.1-0.2l0.4-0.1c0.6-0.1,1.2-0.3,1.6-0.6c0.1-0.1,0.2-0.1,0.2-0.1c0.1,0,0.1,0.1,0.1,0.2c0,0,0,0.1,0,0.2
			c0,0.2,0,0.3,0,0.4V41L71.8,42.3z M70.3,48.4v-2.6c0-0.4-0.2-0.7-0.5-1c-0.4-0.3-0.8-0.4-1.3-0.4c-0.4,0-0.8,0.2-1.1,0.6
			c-0.3,0.4-0.4,0.9-0.4,1.5c0,0.8,0.2,1.4,0.6,1.9s0.9,0.8,1.5,0.8c0.2,0,0.4,0,0.7-0.1s0.4-0.2,0.5-0.3
			C70.3,48.7,70.3,48.5,70.3,48.4z"/>
		<path class="st0" d="M79.6,44.1v4.3c0,0.4,0,0.7,0.1,0.8s0.3,0.2,0.6,0.2h0.2c0.1,0,0.1,0,0.1,0c0.1,0,0.1,0.1,0.1,0.2
			c0,0.2-0.2,0.2-0.5,0.2h-0.3c-0.2,0-0.3,0-0.4,0c-0.3,0-0.6,0.1-1,0.2h-0.1c-0.1,0-0.2-0.1-0.2-0.3c0-0.1,0-0.2,0-0.2
			c0-0.1,0-0.2,0-0.2c0-0.1,0-0.2-0.1-0.2c0,0-0.1,0-0.1,0.1l-0.3,0.3c-0.4,0.4-0.9,0.7-1.5,0.7c-0.7,0-1.2-0.2-1.6-0.6
			c-0.3-0.4-0.5-0.9-0.5-1.7c0-1,0-1.8,0.1-2.6c0-0.1,0-0.2,0-0.3c0-0.3-0.1-0.5-0.4-0.5h-0.3c-0.1,0-0.2-0.1-0.2-0.2
			c0-0.1,0.1-0.2,0.2-0.2s0.4,0,0.8,0s0.7,0,1-0.1c0.1,0,0.2-0.1,0.3-0.1c0.1,0,0.1,0.1,0.1,0.2c0,0.1,0,0.3,0,0.4
			c0,0.5-0.1,1.4-0.1,2.6c0,0.9,0.1,1.6,0.3,1.9c0.2,0.3,0.5,0.5,1,0.5c0.4,0,0.7-0.1,0.9-0.4c0.2-0.2,0.3-0.6,0.3-1v-2.6
			c0-0.4,0-0.6-0.1-0.7c-0.1-0.1-0.3-0.2-0.6-0.2c-0.1,0-0.2-0.1-0.2-0.2c0-0.1,0.1-0.2,0.4-0.2c0.8,0,1.4-0.1,1.7-0.2
			c0.1,0,0.1,0,0.1,0C79.5,44,79.5,44,79.6,44.1L79.6,44.1z"/>
		<path class="st0" d="M84.7,44c0.8,0,1.3,0.2,1.5,0.6c0.2,0.2,0.3,0.4,0.3,0.6c0,0.1-0.2,0.3-0.6,0.6L85.6,46c-0.1,0-0.1,0-0.1,0
			c-0.1,0-0.2-0.1-0.2-0.3c0-0.3-0.2-0.6-0.4-0.9c-0.2-0.2-0.5-0.4-0.8-0.4c-0.4,0-0.7,0.2-1,0.6c-0.3,0.4-0.4,0.8-0.4,1.4
			c0,0.8,0.2,1.5,0.6,2.1c0.4,0.5,0.9,0.8,1.5,0.8c0.5,0,1-0.2,1.6-0.6h0.1c0.1,0,0.1,0,0.1,0.1c0,0.2-0.2,0.4-0.5,0.6
			c-0.6,0.5-1.3,0.7-2,0.7c-0.8,0-1.4-0.3-1.9-0.8s-0.8-1.2-0.8-2c0-1,0.3-1.7,1-2.4S83.7,44,84.7,44z"/>
		<path class="st0" d="M90.5,46.6c0.1-0.2,0.1-0.4,0.1-0.5c0-0.5-0.1-0.8-0.3-1.1c-0.2-0.3-0.5-0.4-0.9-0.4s-0.7,0.2-0.7,0.6
			c0,0.1,0,0.1,0,0.2v0.1c0,0.3-0.4,0.5-1.1,0.5c-0.2,0-0.3-0.1-0.3-0.2c0,0,0-0.1,0-0.2c0-0.1,0-0.1,0-0.2c0.1-0.3,0.2-0.5,0.4-0.7
			c0.5-0.4,1.1-0.5,1.8-0.5c0.8,0,1.4,0.2,1.8,0.6c0.3,0.3,0.5,0.8,0.5,1.5c0,0.4,0,0.8,0,1.3c0,0.6,0,1,0,1.2
			c0,0.5,0.2,0.7,0.6,0.7c0.1,0,0.2,0,0.3,0c0.1,0,0.1,0,0.2,0s0.1,0,0.1,0.1s-0.1,0.2-0.3,0.3L92.4,50l-0.2,0
			c-0.2,0.1-0.4,0.1-0.6,0.1c-0.4,0-0.8-0.3-1-0.8c-0.9,0.6-1.6,0.8-2.2,0.8c-0.4,0-0.7-0.1-0.9-0.3s-0.3-0.5-0.3-1
			c0-0.7,0.3-1.3,1-1.6C88.5,47,89.3,46.8,90.5,46.6z M90.3,47c-0.4,0-0.8,0.1-1.1,0.4s-0.5,0.7-0.5,1c0,0.6,0.2,0.9,0.7,0.9
			c0.3,0,0.6-0.1,0.8-0.2c0.1-0.1,0.2-0.2,0.3-0.4c0-0.2,0.1-0.5,0.1-0.9v-0.5v-0.1V47C90.5,47,90.4,47,90.3,47z"/>
		<path class="st0" d="M95.4,44.9v3.4c0,0.4,0.1,0.7,0.2,0.9s0.3,0.2,0.7,0.2c0.1,0,0.3,0,0.5-0.1s0.3-0.1,0.4-0.2
			c0.1,0,0.1-0.1,0.1-0.1c0.1,0,0.1,0,0.1,0.1v0.1l-0.1,0.1c-0.5,0.5-1.1,0.7-1.8,0.7c-0.5,0-0.9-0.1-1.2-0.4
			c-0.2-0.2-0.4-0.6-0.4-1.1v-3.8h-0.4c-0.2,0-0.3-0.1-0.3-0.2c0-0.1,0.1-0.2,0.2-0.2c0.2-0.1,0.5-0.4,0.9-0.8s0.6-0.7,0.8-0.9
			c0.1-0.2,0.3-0.3,0.3-0.3s0.1,0,0.1,0.1V44h1c0.2,0,0.3,0,0.4-0.1L97,44h0.1c0.1,0,0.1,0,0.1,0.1c0,0,0,0.1,0,0.2
			c0,0.1-0.1,0.2-0.1,0.3C97,44.8,96.9,45,96.7,45L95.4,44.9L95.4,44.9z"/>
		<path class="st0" d="M100.2,44.3v4c0,0.5,0.1,0.8,0.2,1s0.4,0.3,0.8,0.3c0.2,0,0.2,0.1,0.2,0.2c0,0.1-0.2,0.2-0.6,0.2
			c0,0-0.1,0-0.3,0l-0.5-0.1c-0.3,0-0.5,0-0.6,0c-0.2,0-0.6,0-1,0.1c-0.1,0-0.2,0-0.2,0c-0.1,0-0.1,0-0.1-0.1s0-0.1,0.1-0.1l0.2-0.1
			c0.1-0.1,0.2-0.2,0.3-0.4s0.1-0.4,0.1-0.6v-0.3V46c0-0.4,0-0.6-0.1-0.8C98.6,45,98.4,45,98.2,45H98c-0.1,0-0.1,0-0.2-0.1v-0.1
			c0-0.1,0.1-0.2,0.4-0.3c0.7-0.1,1.3-0.4,1.7-0.7c0.1,0,0.1,0,0.1,0c0.1,0,0.1,0,0.1,0.1V44C100.2,44.1,100.2,44.2,100.2,44.3z
			 M99.4,40.5c0.1,0,0.3,0.2,0.5,0.5l0.3,0.4c0.1,0.1,0.1,0.2,0.1,0.2c0,0.1-0.1,0.3-0.4,0.6s-0.4,0.5-0.5,0.5s-0.1,0-0.2-0.1
			l-0.3-0.4l-0.3-0.3c-0.1-0.1-0.1-0.2-0.1-0.2c0-0.1,0.1-0.3,0.4-0.6S99.3,40.5,99.4,40.5z"/>
		<path class="st0" d="M105.1,44c0.9,0,1.6,0.3,2.2,0.8c0.6,0.6,0.9,1.3,0.9,2.1c0,0.9-0.3,1.6-0.9,2.2S105.9,50,105,50
			s-1.6-0.3-2.2-0.8s-0.9-1.2-0.9-2.1c0-0.9,0.3-1.6,1-2.2S104.2,44,105.1,44z M104.7,44.4c-0.4,0-0.8,0.2-1.1,0.6s-0.4,0.9-0.4,1.5
			c0,0.9,0.2,1.6,0.6,2.3s0.9,0.9,1.5,0.9c0.4,0,0.8-0.2,1.1-0.5c0.3-0.4,0.4-0.8,0.4-1.4c0-0.9-0.2-1.7-0.6-2.4
			S105.3,44.4,104.7,44.4z"/>
		<path class="st0" d="M115.5,47v1.4c0,0.3,0,0.5,0,0.6s0.1,0.2,0.2,0.3c0.2,0.1,0.4,0.2,0.6,0.2c0.1,0,0.2,0.1,0.2,0.2
			c0,0.1-0.2,0.2-0.5,0.2c-0.1,0-0.2,0-0.3,0l-0.5-0.1c-0.2,0-0.4,0-0.5,0c-0.4,0-0.8,0-1.1,0.1c-0.1,0-0.2,0-0.3,0
			c-0.1,0-0.2-0.1-0.2-0.2c0-0.1,0.1-0.1,0.2-0.2c0.2-0.1,0.3-0.2,0.4-0.3s0.1-0.4,0.1-0.8v-1.6c0-0.6-0.1-1.1-0.4-1.5
			s-0.6-0.6-1-0.6s-0.7,0.1-0.9,0.3c-0.2,0.2-0.4,0.5-0.4,0.8v2.3c0,0.4,0.1,0.7,0.2,0.9c0.2,0.2,0.4,0.3,0.8,0.3
			c0.1,0,0.2,0.1,0.2,0.2c0,0.1-0.1,0.2-0.2,0.2c-0.2,0-0.3,0-0.6,0c-0.5-0.1-0.9-0.1-1.1-0.1c-0.3,0-0.6,0-0.9,0.1
			c-0.2,0-0.3,0-0.3,0c-0.1,0-0.2,0-0.2-0.1s0-0.1,0.1-0.1c0.2-0.1,0.4-0.2,0.5-0.3s0.1-0.3,0.1-0.6v-0.2v-2.5v-0.3
			c0-0.3,0-0.6-0.1-0.7c-0.1-0.1-0.2-0.2-0.4-0.2h-0.3h-0.1v-0.1c0-0.1,0-0.1,0.1-0.2c0.1,0,0.3-0.1,0.6-0.2
			c0.6-0.1,1.1-0.3,1.5-0.6h0.1c0.1,0,0.1,0,0.1,0.1V44v0.4v0.3c0,0.1,0,0.1,0.1,0.1c0,0,0.1-0.1,0.2-0.2c0.4-0.5,1-0.8,1.7-0.8
			c0.8,0,1.3,0.2,1.6,0.7S115.5,45.9,115.5,47z"/>
	</g>
</g>
<g>
	<path class="st0" d="M36.1,17.5c0,4.1-3.3,7.4-7.4,7.4s-7.4-3.3-7.4-7.4s3.3-7.4,7.4-7.4S36.1,13.4,36.1,17.5"/>
	<g class="st1">
		<g>
			<path class="st0" d="M51.3,18.3c-0.7,12.4-10.5,22.3-22.9,23.2C29.2,29.1,39,19.1,51.3,18.3"/>
		</g>
	</g>
	<path class="st0" d="M51.5,18.3C50.8,30.7,41,40.6,28.7,41.5C29.3,29.1,39.2,19.1,51.5,18.3"/>
	<path class="st0" d="M5.8,18.3c0.7,12.4,10.5,22.3,22.9,23.2C28,29.1,18.1,19.1,5.8,18.3"/>
	<rect x="27.8" y="40.6" class="st0" width="1.7" height="13.1"/>
</g>
</svg>
